<?xml version="1.0" encoding="utf-8"?>
<!-- Generator: Adobe Illustrator 22.1.0, SVG Export Plug-In . SVG Version: 6.00 Build 0)  -->
<svg version="1.1" id="Layer_1" xmlns="http://www.w3.org/2000/svg" xmlns:xlink="http://www.w3.org/1999/xlink" x="0px" y="0px"
	 viewBox="0 0 64 50" style="enable-background:new 0 0 64 50;" xml:space="preserve">
<style type="text/css">
	.st0{fill:#D8F6F6;}
	.st1{fill:url(#SVGID_1_);}
	.st2{fill:url(#SVGID_2_);}
	.st3{fill:url(#SVGID_3_);}
</style>
<title>PINK</title>
<path class="st0" d="M58.8,11C44.1-2.7,11.1,5.8,2.5,18.6c-4.8,7.2-2.2,17.2,3.5,23c10.3,10.2,27.6,10.2,39.9,4.7
	C57.8,41.1,71.8,22.7,58.8,11z"/>
<linearGradient id="SVGID_1_" gradientUnits="userSpaceOnUse" x1="21.6177" y1="-109.9182" x2="45.7844" y2="-76.4182" gradientTransform="matrix(1 0 0 -1 0 -73)">
	<stop  offset="0" style="stop-color:#60C2A4"/>
	<stop  offset="1" style="stop-color:#438FCD"/>
</linearGradient>
<path class="st1" d="M53.1,16.3c-0.2-0.5-0.7-0.8-1.2-0.7c-0.5,0.2-0.8,0.7-0.7,1.2c0.6,1.9,0.8,4,0.8,6c-0.2,10.9-9.1,19.6-20,19.6
	c-0.1,0-0.2,0-0.4,0c-5.3-0.1-10.3-2.3-14-6.1s-5.7-8.9-5.6-14.2c0.1-5.3,2.3-10.3,6.1-14S27,2.4,32.4,2.5c3.9,0.1,7.7,1.3,10.9,3.5
	c-0.5,0.8-0.8,1.7-0.8,2.7c0,1.4,0.5,2.7,1.5,3.7s2.3,1.6,3.6,1.6h0.1c1.4,0,2.6-0.5,3.6-1.5s1.6-2.3,1.6-3.6s-0.5-2.7-1.5-3.7
	s-2.3-1.6-3.6-1.6c-1.1,0-2.2,0.3-3.1,1c-3.6-2.5-7.8-3.9-12.3-4C20.3,0.3,10.2,10,10,22.1c-0.1,5.9,2.1,11.4,6.2,15.7
	c4.1,4.2,9.6,6.6,15.4,6.7c0.1,0,0.3,0,0.4,0c12,0,21.8-9.6,22-21.6C54.1,20.6,53.8,18.4,53.1,16.3z M47.7,5.6c0.9,0,1.7,0.4,2.2,1
	c0.6,0.6,0.9,1.4,0.9,2.3s-0.4,1.7-1,2.2c-0.6,0.6-1.4,0.9-2.3,0.9c-0.9,0-1.7-0.4-2.2-1c-0.6-0.6-0.9-1.4-0.9-2.3
	C44.5,7,45.9,5.6,47.7,5.6L47.7,5.6z"/>
<linearGradient id="SVGID_2_" gradientUnits="userSpaceOnUse" x1="32.9144" y1="28.7832" x2="36.9144" y2="25.2832">
	<stop  offset="0" style="stop-color:#60C2A4"/>
	<stop  offset="1" style="stop-color:#438FCD"/>
</linearGradient>
<path class="st2" d="M22.6,28.8v2.8c0,0.6,0.4,1,1,1l0,0h16.8c0.3,0,0.5-0.1,0.7-0.3s0.3-0.4,0.3-0.7v-2.8c0-1.3-0.7-2.6-1.9-3.3
	c-1.5-0.9-4-1.9-7.5-1.9l0,0c-3.5,0-6.1,1.1-7.5,2C23.3,26.2,22.6,27.5,22.6,28.8z M25.5,27.3c1.3-0.8,3.4-1.7,6.5-1.7l0,0
	c3,0,5.2,0.9,6.5,1.7c0.6,0.3,0.9,0.9,0.9,1.6v1.8H24.6v-1.8C24.6,28.2,25,27.6,25.5,27.3z"/>
<linearGradient id="SVGID_3_" gradientUnits="userSpaceOnUse" x1="28.1338" y1="18.8863" x2="35.3005" y2="13.8863">
	<stop  offset="0" style="stop-color:#60C2A4"/>
	<stop  offset="1" style="stop-color:#438FCD"/>
</linearGradient>
<path class="st3" d="M32,21.4c2.9,0,5.2-2.3,5.2-5.2S34.9,11,32,11l0,0c-1.4,0-2.7,0.5-3.7,1.5s-1.5,2.3-1.5,3.7
	C26.8,19.1,29.2,21.4,32,21.4L32,21.4z M28.8,16.2c0-0.9,0.3-1.7,0.9-2.3S31.1,13,32,13l0,0c1.8,0,3.2,1.4,3.2,3.2s-1.4,3.2-3.2,3.2
	l0,0C30.3,19.4,28.8,18,28.8,16.2z"/>
</svg>
