<?xml version="1.0" encoding="utf-8"?>
<!-- Generator: Adobe Illustrator 22.1.0, SVG Export Plug-In . SVG Version: 6.00 Build 0)  -->
<svg version="1.1" id="Layer_1" xmlns="http://www.w3.org/2000/svg" xmlns:xlink="http://www.w3.org/1999/xlink" x="0px" y="0px"
	 viewBox="0 0 64 50" style="enable-background:new 0 0 64 50;" xml:space="preserve">
<style type="text/css">
	.st0{fill:#D8F6F6;}
	.st1{fill:url(#SVGID_1_);}
	.st2{fill:url(#SVGID_2_);}
	.st3{fill:url(#SVGID_3_);}
</style>
<title>PINK</title>
<path class="st0" d="M1.4,41.7C0,39.4-0.4,36.6,0.3,34c1.4-6.3,5.6-12.1,9.8-17C16.7,9.2,24.8,2.6,35.2,1.2
	c13.4-1.8,28.6,9.3,28.8,23C64.2,39,47.2,52.8,33,49.5c-3.7-0.8-7-2.9-10.5-4.1c-3.9-1.3-7.8-0.2-11.8,0.1
	C6.5,45.8,3.2,44.4,1.4,41.7z"/>
<linearGradient id="SVGID_1_" gradientUnits="userSpaceOnUse" x1="33.8519" y1="20.0719" x2="43.6019" y2="14.0719">
	<stop  offset="0" style="stop-color:#60C2A4"/>
	<stop  offset="1" style="stop-color:#438FCD"/>
</linearGradient>
<path class="st1" d="M33.1,22.9c0.2,0.2,0.5,0.3,0.7,0.3s0.5-0.1,0.7-0.3l9.2-9.2v8.5c0,0.6,0.4,1,1,1s1-0.4,1-1V11.3
	c0-0.1,0-0.3-0.1-0.4c-0.1-0.2-0.3-0.4-0.5-0.5c-0.1-0.1-0.3-0.1-0.4-0.1H33.8c-0.6,0-1,0.4-1,1s0.4,1,1,1h8.5l-9.2,9.2
	C32.7,21.9,32.7,22.5,33.1,22.9z"/>
<linearGradient id="SVGID_2_" gradientUnits="userSpaceOnUse" x1="15.4589" y1="157.7841" x2="66.4589" y2="127.6174" gradientTransform="matrix(1 0 0 1 0 -124)">
	<stop  offset="0" style="stop-color:#60C2A4"/>
	<stop  offset="1" style="stop-color:#438FCD"/>
</linearGradient>
<path class="st2" d="M52,3H12c-0.6,0-1,0.4-1,1v40c0,0.6,0.4,1,1,1h40c0.6,0,1-0.4,1-1V4C53,3.4,52.5,3,52,3z M51,43H13V5h38V43z"/>
<linearGradient id="SVGID_3_" gradientUnits="userSpaceOnUse" x1="24.2669" y1="31.7887" x2="28.0169" y2="28.5387">
	<stop  offset="0" style="stop-color:#60C2A4"/>
	<stop  offset="1" style="stop-color:#438FCD"/>
</linearGradient>
<path class="st3" d="M19.3,37.7h9.1c0.6,0,1-0.4,1-1v-9.1c0-0.6-0.4-1-1-1h-9.1c-0.6,0-1,0.4-1,1v9.1C18.3,37.3,18.7,37.7,19.3,37.7
	z M20.3,28.6h7.1v7.1h-7.1V28.6z"/>
</svg>
