<?xml version="1.0" encoding="utf-8"?>
<!-- Generator: Adobe Illustrator 22.1.0, SVG Export Plug-In . SVG Version: 6.00 Build 0)  -->
<svg version="1.1" id="Layer_1" xmlns="http://www.w3.org/2000/svg" xmlns:xlink="http://www.w3.org/1999/xlink" x="0px" y="0px"
	 viewBox="0 0 64 50" style="enable-background:new 0 0 64 50;" xml:space="preserve">
<style type="text/css">
	.st0{fill:url(#SVGID_1_);}
	.st1{fill:url(#SVGID_2_);}
	.st2{fill:url(#SVGID_3_);}
	.st3{fill:url(#SVGID_4_);}
	.st4{fill:url(#SVGID_5_);}
	.st5{fill:url(#SVGID_6_);}
</style>
<linearGradient id="SVGID_1_" gradientUnits="userSpaceOnUse" x1="0" y1="25.0067" x2="64.0216" y2="25.0067">
	<stop  offset="0" style="stop-color:#DDD5F0"/>
	<stop  offset="1" style="stop-color:#EEEBF8"/>
</linearGradient>
<path class="st0" d="M61.1,25.2c-3.5-3-9.5-4.4-13.5-5.2c-6.3-1.2-9.8-4-13-9.4c-2.5-4.1-4.9-8.8-10-10.2C11.4-3,1.5,16.1,0.2,25.1
	C-1.4,37,6.3,47.2,20,49.4c9.7,1.6,21-0.2,30-3.9c5.4-2.2,12.7-6.7,13.9-12.9C64.4,29.4,63.2,27.1,61.1,25.2z"/>
<title>PINK</title>
<g>
	<linearGradient id="SVGID_2_" gradientUnits="userSpaceOnUse" x1="-4.1813" y1="24.7517" x2="35.0042" y2="-13.7696">
		<stop  offset="0" style="stop-color:#A33F97"/>
		<stop  offset="1" style="stop-color:#5D39B9"/>
	</linearGradient>
	<path class="st1" d="M13.1,13.2c0.6,0,1-0.4,1-1v-8h8c0.6,0,1-0.4,1-1s-0.4-1-1-1h-9c-0.6,0-1,0.4-1,1v9
		C12.1,12.8,12.5,13.2,13.1,13.2z"/>
	<linearGradient id="SVGID_3_" gradientUnits="userSpaceOnUse" x1="11.8667" y1="41.0764" x2="51.0521" y2="2.5551">
		<stop  offset="0" style="stop-color:#A33F97"/>
		<stop  offset="1" style="stop-color:#5D39B9"/>
	</linearGradient>
	<path class="st2" d="M50.2,2.3h-9c-0.6,0-1,0.4-1,1s0.4,1,1,1h8v8c0,0.6,0.4,1,1,1c0.6,0,1-0.4,1-1v-9C51.2,2.7,50.8,2.3,50.2,2.3z
		"/>
	<linearGradient id="SVGID_4_" gradientUnits="userSpaceOnUse" x1="28.1539" y1="57.6444" x2="67.3393" y2="19.1231">
		<stop  offset="0" style="stop-color:#A33F97"/>
		<stop  offset="1" style="stop-color:#5D39B9"/>
	</linearGradient>
	<path class="st3" d="M50.2,30.5c-0.6,0-1,0.4-1,1v8h-8c-0.6,0-1,0.4-1,1s0.4,1,1,1h9c0.6,0,1-0.4,1-1v-9
		C51.2,30.9,50.8,30.5,50.2,30.5z"/>
	<linearGradient id="SVGID_5_" gradientUnits="userSpaceOnUse" x1="12.1056" y1="41.3194" x2="51.2911" y2="2.7981">
		<stop  offset="0" style="stop-color:#A33F97"/>
		<stop  offset="1" style="stop-color:#5D39B9"/>
	</linearGradient>
	<path class="st4" d="M22.1,39.4h-8v-8c0-0.6-0.4-1-1-1s-1,0.4-1,1v9c0,0.6,0.4,1,1,1h9c0.6,0,1-0.4,1-1S22.6,39.4,22.1,39.4z"/>
	<linearGradient id="SVGID_6_" gradientUnits="userSpaceOnUse" x1="11.986" y1="41.1978" x2="51.1715" y2="2.6765">
		<stop  offset="0" style="stop-color:#A33F97"/>
		<stop  offset="1" style="stop-color:#5D39B9"/>
	</linearGradient>
	<path class="st5" d="M37,22.8h3.6c0.6,0,1-0.4,1-1s-0.4-1-1-1H37c-0.4-2.2-2.2-4-4.4-4.4v-3.6c0-0.6-0.4-1-1-1s-1,0.4-1,1v3.6
		c-2.2,0.4-4,2.2-4.4,4.4h-3.6c-0.6,0-1,0.4-1,1s0.4,1,1,1h3.6c0.4,2.2,2.2,4,4.4,4.4v3.6c0,0.6,0.4,1,1,1s1-0.4,1-1v-3.6
		C34.9,26.8,36.6,25.1,37,22.8z M31.7,25.3c-1.9,0-3.5-1.6-3.5-3.5s1.6-3.5,3.5-3.5c1.9,0,3.5,1.6,3.5,3.5S33.6,25.3,31.7,25.3z"/>
</g>
</svg>
