<?xml version="1.0" encoding="utf-8"?>
<!-- Generator: Adobe Illustrator 22.1.0, SVG Export Plug-In . SVG Version: 6.00 Build 0)  -->
<svg version="1.1" id="Layer_1" xmlns="http://www.w3.org/2000/svg" xmlns:xlink="http://www.w3.org/1999/xlink" x="0px" y="0px"
	 viewBox="0 0 64 50" style="enable-background:new 0 0 64 50;" xml:space="preserve">
<style type="text/css">
	.st0{fill:#FAF5E5;enable-background:new    ;}
	.st1{fill:url(#SVGID_1_);}
	.st2{fill:#F7C433;}
</style>
<path class="st0" d="M61.1,25.2c-3.5-3-9.5-4.4-13.5-5.2c-6.3-1.2-9.8-4-13-9.4c-2.5-4.1-4.9-8.8-10-10.2C11.4-3.1,1.5,16,0.2,25.1
	C-1.4,37,6.3,47.2,20,49.4c9.7,1.6,21-0.2,30-3.9c5.4-2.2,12.7-6.7,13.9-12.9C64.41,29.81,63.33,26.96,61.1,25.2z"/>
<linearGradient id="SVGID_1_" gradientUnits="userSpaceOnUse" x1="24.64" y1="28.5934" x2="51.64" y2="28.8434" gradientTransform="matrix(1 0 0 -1 0 52)">
	<stop  offset="0" style="stop-color:#F7C433"/>
	<stop  offset="0.52" style="stop-color:#FFA354"/>
	<stop  offset="1" style="stop-color:#EE3968"/>
</linearGradient>
<path class="st1" d="M50.49,21.6c0,0,0-0.05,0-0.07s0-0.05,0-0.07c-0.01-0.12-0.05-0.23-0.1-0.33c-0.06-0.1-0.13-0.19-0.22-0.26
	l-6.49-4.71V4.32c0-0.55-0.45-1-1-1H18.4c-0.55,0-1,0.45-1,1v11.76l-6.5,4.71c-0.09,0.07-0.16,0.16-0.21,0.26l0,0
	c-0.06,0.1-0.09,0.21-0.11,0.33v0.07c-0.01,0.02-0.01,0.05,0,0.07v20.8c0,0.55,0.45,1,1,1h38c0.12,0,0.23-0.02,0.34-0.06h0.09
	c0.09-0.05,0.18-0.11,0.26-0.18c0.06-0.07,0.12-0.15,0.17-0.23l0,0c0.02-0.06,0.04-0.13,0.06-0.19c0.01-0.07,0.01-0.13,0-0.2l0,0
	L50.49,21.6z M32.58,32l10.31-5.63c0.1-0.03,0.2-0.08,0.28-0.15l5.32-2.9v17.32L32.58,32z M47.58,21.52l-4,2.2v-5.17L47.58,21.52z
	 M41.58,5.36v19.41l-11.09,6.05L19.4,24.77V5.32L41.58,5.36z M17.4,23.68l-4-2.2l4-2.93V23.68z M12.49,23.28l5.31,2.9
	c0.08,0.07,0.18,0.12,0.28,0.15L30,32.82l15.58,8.49H12.49V23.28z"/>
<g>
	<path class="st2" d="M25.31,14h10.36c0.55,0,1-0.45,1-1s-0.45-1-1-1H25.31c-0.55,0-1,0.45-1,1S24.76,14,25.31,14z"/>
	<path class="st2" d="M25.31,20.87h6.36c0.55,0,1-0.45,1-1s-0.45-1-1-1h-6.36c-0.55,0-1,0.45-1,1S24.76,20.87,25.31,20.87z"/>
</g>
</svg>
