<?xml version="1.0" encoding="utf-8"?>
<!-- Generator: Adobe Illustrator 22.1.0, SVG Export Plug-In . SVG Version: 6.00 Build 0)  -->
<svg version="1.1" id="Layer_1" xmlns="http://www.w3.org/2000/svg" xmlns:xlink="http://www.w3.org/1999/xlink" x="0px" y="0px"
	 viewBox="0 0 64 50" style="enable-background:new 0 0 64 50;" xml:space="preserve">
<style type="text/css">
	.st0{fill:#D8F6F6;}
	.st1{fill:url(#SVGID_1_);}
	.st2{fill:url(#SVGID_2_);}
</style>
<title>_ICONS-Personlization</title>
<path class="st0" d="M58.8,13.3C44.1,0.4,11.1,8.4,2.5,20.4C-2.3,27.2,0.3,36.6,6,42.1c10.3,9.6,27.6,9.6,39.9,4.4
	C57.8,41.6,71.8,24.3,58.8,13.3z"/>
<g>
	
		<linearGradient id="SVGID_1_" gradientUnits="userSpaceOnUse" x1="15.5892" y1="20.613" x2="42.4226" y2="37.7797" gradientTransform="matrix(1 0 0 -1 0 52)">
		<stop  offset="0" style="stop-color:#60C2A4"/>
		<stop  offset="1" style="stop-color:#438FCD"/>
	</linearGradient>
	<path class="st1" d="M52.1,6.6h-4.8V2.8c0-1-0.8-1.9-1.9-1.9H31.2c-1,0-1.9,0.8-1.9,1.9v3.9H10.2c-0.5,0-0.9,0.4-0.9,0.9v27.6
		c0,0.5,0.4,0.9,0.9,0.9H15v4.8c0,1,0.8,1.9,1.9,1.9h8.6c1,0,1.9-0.8,1.9-1.9v-4.8h24.8c0.5,0,0.9-0.4,0.9-0.9V7.5
		C53,7.1,52.6,6.6,52.1,6.6z M45.5,2.8v17.1c0,0,0,0.1-0.1,0.1l-14.3-0.1l0.1-17.2L45.5,2.8z M25.5,40.9L25.5,40.9h-8.7l0.1-13.4
		l8.6,0.1V40.9z M51.2,34.3H27.3v-6.7c0-1-0.8-1.9-1.9-1.9h-8.6c-1,0-1.9,0.8-1.9,1.9v6.7H11V8.4h18.2v11.5c0,1,0.8,1.9,1.9,1.9
		h14.3c1,0,1.9-0.8,1.9-1.9V8.4h3.9C51.2,8.4,51.2,34.3,51.2,34.3z"/>
	
		<linearGradient id="SVGID_2_" gradientUnits="userSpaceOnUse" x1="24.5247" y1="6.6459" x2="51.358" y2="23.8126" gradientTransform="matrix(1 0 0 -1 0 52)">
		<stop  offset="0" style="stop-color:#60C2A4"/>
		<stop  offset="1" style="stop-color:#438FCD"/>
	</linearGradient>
	<path class="st2" d="M35.9,39h-5.7c-0.5,0-0.9,0.4-0.9,0.9s0.4,0.9,0.9,0.9h5.7c0.5,0,0.9-0.4,0.9-0.9S36.4,39,35.9,39z"/>
</g>
</svg>
