<svg width="790" height="615" viewBox="0 0 790 615" fill="none" xmlns="http://www.w3.org/2000/svg">
<path d="M676.812 7.15983C740.657 34.0645 763.219 143.714 742.577 232.55C722.415 320.879 659.05 387.887 595.685 456.418C532.32 525.456 468.955 596.018 390.709 611.754C312.943 626.983 220.296 587.388 153.09 518.857C86.365 449.818 45.0817 351.845 55.6425 265.547C66.6834 178.741 130.048 104.118 196.774 77.2136C263.979 50.3089 334.545 71.6296 422.392 53.8623C509.759 36.6027 613.447 -19.7449 676.812 7.15983Z" fill="#DDEBE8"/>
<circle cx="228" cy="138" r="75" fill="#9672F0"/>
<circle cx="538" cy="138" r="75" fill="#F77798"/>
<circle cx="538" cy="448" r="75" fill="#F172BB"/>
<circle cx="228" cy="448" r="75" fill="#FAB477"/>
<path d="M585.442 214.265C604.863 264.644 604.852 320.445 585.411 370.816" stroke="#61729B" stroke-width="4"/>
<path d="M460.735 494.442C410.356 513.863 354.555 513.852 304.184 494.411" stroke="#61729B" stroke-width="4"/>
<path d="M583.253 371.699C583.72 372.7 584.91 373.133 585.911 372.666L602.225 365.059C603.226 364.592 603.659 363.402 603.192 362.401C602.725 361.4 601.535 360.967 600.534 361.434L586.033 368.195L579.271 353.695C578.805 352.693 577.615 352.26 576.614 352.727C575.613 353.194 575.179 354.384 575.646 355.385L583.253 371.699ZM583.871 368.29L583.187 370.169L586.945 371.537L587.629 369.658L583.871 368.29Z" fill="#61729B"/>
<path d="M301.321 491.078C300.286 491.464 299.761 492.616 300.147 493.651L306.439 510.515C306.825 511.55 307.977 512.076 309.012 511.69C310.047 511.304 310.572 510.152 310.186 509.117L304.593 494.127L319.584 488.534C320.619 488.148 321.145 486.996 320.759 485.961C320.373 484.926 319.221 484.4 318.186 484.786L301.321 491.078ZM304.67 491.963L302.851 491.133L301.19 494.771L303.009 495.602L304.67 491.963Z" fill="#61729B"/>
<path d="M179.558 369.735C160.137 319.356 160.148 263.555 179.589 213.184" stroke="#61729B" stroke-width="4"/>
<path d="M181.569 212.204C181.129 211.191 179.951 210.726 178.938 211.165L162.426 218.331C161.413 218.771 160.948 219.949 161.388 220.962C161.827 221.976 163.005 222.44 164.018 222.001L178.696 215.631L185.066 230.308C185.505 231.322 186.683 231.787 187.697 231.347C188.71 230.907 189.175 229.729 188.735 228.716L181.569 212.204ZM180.86 215.595L181.595 213.734L177.874 212.266L177.14 214.126L180.86 215.595Z" fill="#61729B"/>
<path d="M304.265 89.5578C354.644 70.1366 410.445 70.1477 460.816 89.5891" stroke="#61729B" stroke-width="4"/>
<path d="M461.795 91.569C462.808 91.1292 463.273 89.9513 462.834 88.9381L455.668 72.426C455.228 71.4127 454.05 70.9478 453.037 71.3876C452.023 71.8273 451.559 73.0052 451.998 74.0185L458.368 88.6958L443.691 95.0656C442.677 95.5054 442.213 96.6833 442.652 97.6965C443.092 98.7098 444.27 99.1747 445.283 98.735L461.795 91.569ZM458.404 90.8603L460.265 91.5946L461.733 87.874L459.873 87.1397L458.404 90.8603Z" fill="#61729B"/>
<path d="M515.25 110.583C512.355 110.583 510 112.939 510 115.833C510 118.728 512.355 121.083 515.25 121.083C518.144 121.083 520.5 118.728 520.5 115.833C520.5 112.939 518.144 110.583 515.25 110.583ZM515.25 118.75C513.642 118.75 512.333 117.442 512.333 115.833C512.333 114.225 513.642 112.917 515.25 112.917C516.858 112.917 518.167 114.225 518.167 115.833C518.167 117.442 516.858 118.75 515.25 118.75Z" fill="white"/>
<path d="M561.333 115.25C561.977 115.25 562.499 114.728 562.499 114.083C562.499 113.439 561.977 112.917 561.333 112.917C560.688 112.917 560.166 113.439 560.166 114.083C560.166 114.728 560.688 115.25 561.333 115.25Z" fill="white"/>
<path d="M556.667 115.25C557.311 115.25 557.833 114.728 557.833 114.083C557.833 113.439 557.311 112.917 556.667 112.917C556.022 112.917 555.5 113.439 555.5 114.083C555.5 114.728 556.022 115.25 556.667 115.25Z" fill="white"/>
<path d="M563.667 118.75C564.311 118.75 564.833 118.228 564.833 117.583C564.833 116.939 564.311 116.417 563.667 116.417C563.022 116.417 562.5 116.939 562.5 117.583C562.5 118.228 563.022 118.75 563.667 118.75Z" fill="white"/>
<path d="M559.001 118.75C559.645 118.75 560.167 118.228 560.167 117.583C560.167 116.939 559.645 116.417 559.001 116.417C558.356 116.417 557.834 116.939 557.834 117.583C557.834 118.228 558.356 118.75 559.001 118.75Z" fill="white"/>
<path d="M552.001 115.25C552.645 115.25 553.167 114.728 553.167 114.083C553.167 113.439 552.645 112.917 552.001 112.917C551.356 112.917 550.834 113.439 550.834 114.083C550.834 114.728 551.356 115.25 552.001 115.25Z" fill="white"/>
<path d="M554.333 118.75C554.977 118.75 555.499 118.228 555.499 117.583C555.499 116.939 554.977 116.417 554.333 116.417C553.688 116.417 553.166 116.939 553.166 117.583C553.166 118.228 553.688 118.75 554.333 118.75Z" fill="white"/>
<path d="M547.333 115.25C547.977 115.25 548.499 114.728 548.499 114.083C548.499 113.439 547.977 112.917 547.333 112.917C546.688 112.917 546.166 113.439 546.166 114.083C546.166 114.728 546.688 115.25 547.333 115.25Z" fill="white"/>
<path d="M549.667 118.75C550.311 118.75 550.833 118.228 550.833 117.583C550.833 116.939 550.311 116.417 549.667 116.417C549.022 116.417 548.5 116.939 548.5 117.583C548.5 118.228 549.022 118.75 549.667 118.75Z" fill="white"/>
<path d="M542.667 115.25C543.311 115.25 543.833 114.728 543.833 114.083C543.833 113.439 543.311 112.917 542.667 112.917C542.022 112.917 541.5 113.439 541.5 114.083C541.5 114.728 542.022 115.25 542.667 115.25Z" fill="white"/>
<path d="M545.001 118.75C545.645 118.75 546.167 118.228 546.167 117.583C546.167 116.939 545.645 116.417 545.001 116.417C544.356 116.417 543.834 116.939 543.834 117.583C543.834 118.228 544.356 118.75 545.001 118.75Z" fill="white"/>
<path d="M573 122.707V108.959C573 105.995 570.588 103.583 567.624 103.583H508.376C505.411 103.583 503 105.995 503 108.959V122.706C503 124.42 503.82 125.931 505.073 126.916C503.82 127.901 503 129.413 503 131.126V144.873C503 146.587 503.82 148.098 505.073 149.082C503.82 150.068 503 151.58 503 153.293V167.04C503 170.005 505.411 172.417 508.376 172.417H567.623C570.587 172.417 572.999 170.005 572.999 167.041V153.293C572.999 151.579 572.179 150.068 570.926 149.083C572.18 148.099 573 146.587 573 144.874V131.126C573 129.412 572.18 127.901 570.927 126.917C572.18 125.932 573 124.42 573 122.707ZM570.667 153.293V167.04C570.667 168.717 569.302 170.082 567.624 170.082H508.376C506.698 170.083 505.333 168.718 505.333 167.041V153.293C505.333 151.615 506.698 150.25 508.376 150.25H567.623C569.302 150.25 570.667 151.615 570.667 153.293ZM570.667 131.126V144.873C570.667 146.551 569.302 147.916 567.624 147.916H508.376C506.698 147.917 505.333 146.552 505.333 144.874V131.126C505.333 129.448 506.698 128.083 508.376 128.083H567.623C569.302 128.083 570.667 129.448 570.667 131.126ZM508.376 125.75C506.698 125.75 505.333 124.385 505.333 122.707V108.959C505.333 107.282 506.698 105.917 508.376 105.917H567.623C569.302 105.917 570.667 107.282 570.667 108.959V122.706C570.667 124.384 569.302 125.749 567.624 125.749H508.376V125.75Z" fill="white"/>
<path d="M515.25 143.25C518.144 143.25 520.5 140.894 520.5 138C520.5 135.105 518.144 132.75 515.25 132.75C512.355 132.75 510 135.105 510 138C510 140.894 512.355 143.25 515.25 143.25ZM515.25 135.083C516.858 135.083 518.167 136.391 518.167 138C518.167 139.609 516.858 140.917 515.25 140.917C513.642 140.917 512.333 139.609 512.333 138C512.333 136.391 513.642 135.083 515.25 135.083Z" fill="white"/>
<path d="M561.333 137.417C561.977 137.417 562.499 136.894 562.499 136.25C562.499 135.606 561.977 135.083 561.333 135.083C560.688 135.083 560.166 135.606 560.166 136.25C560.166 136.894 560.688 137.417 561.333 137.417Z" fill="white"/>
<path d="M556.667 137.417C557.311 137.417 557.833 136.894 557.833 136.25C557.833 135.606 557.311 135.083 556.667 135.083C556.022 135.083 555.5 135.606 555.5 136.25C555.5 136.894 556.022 137.417 556.667 137.417Z" fill="white"/>
<path d="M563.667 140.917C564.311 140.917 564.833 140.394 564.833 139.75C564.833 139.106 564.311 138.583 563.667 138.583C563.022 138.583 562.5 139.106 562.5 139.75C562.5 140.394 563.022 140.917 563.667 140.917Z" fill="white"/>
<path d="M559.001 140.917C559.645 140.917 560.167 140.394 560.167 139.75C560.167 139.106 559.645 138.583 559.001 138.583C558.356 138.583 557.834 139.106 557.834 139.75C557.834 140.394 558.356 140.917 559.001 140.917Z" fill="white"/>
<path d="M552.001 137.417C552.645 137.417 553.167 136.894 553.167 136.25C553.167 135.606 552.645 135.083 552.001 135.083C551.356 135.083 550.834 135.606 550.834 136.25C550.834 136.894 551.356 137.417 552.001 137.417Z" fill="white"/>
<path d="M554.333 140.917C554.977 140.917 555.499 140.394 555.499 139.75C555.499 139.106 554.977 138.583 554.333 138.583C553.688 138.583 553.166 139.106 553.166 139.75C553.166 140.394 553.688 140.917 554.333 140.917Z" fill="white"/>
<path d="M547.333 137.417C547.977 137.417 548.499 136.894 548.499 136.25C548.499 135.606 547.977 135.083 547.333 135.083C546.688 135.083 546.166 135.606 546.166 136.25C546.166 136.894 546.688 137.417 547.333 137.417Z" fill="white"/>
<path d="M549.667 140.917C550.311 140.917 550.833 140.394 550.833 139.75C550.833 139.106 550.311 138.583 549.667 138.583C549.022 138.583 548.5 139.106 548.5 139.75C548.5 140.394 549.022 140.917 549.667 140.917Z" fill="white"/>
<path d="M542.667 137.417C543.311 137.417 543.833 136.894 543.833 136.25C543.833 135.606 543.311 135.083 542.667 135.083C542.022 135.083 541.5 135.606 541.5 136.25C541.5 136.894 542.022 137.417 542.667 137.417Z" fill="white"/>
<path d="M545.001 140.917C545.645 140.917 546.167 140.394 546.167 139.75C546.167 139.106 545.645 138.583 545.001 138.583C544.356 138.583 543.834 139.106 543.834 139.75C543.834 140.394 544.356 140.917 545.001 140.917Z" fill="white"/>
<path d="M515.25 165.417C518.144 165.417 520.5 163.061 520.5 160.167C520.5 157.272 518.144 154.917 515.25 154.917C512.355 154.917 510 157.272 510 160.167C510 163.061 512.355 165.417 515.25 165.417ZM515.25 157.25C516.858 157.25 518.167 158.558 518.167 160.167C518.167 161.776 516.858 163.083 515.25 163.083C513.642 163.083 512.333 161.776 512.333 160.167C512.333 158.558 513.642 157.25 515.25 157.25Z" fill="white"/>
<path d="M561.333 159.583C561.977 159.583 562.499 159.061 562.499 158.417C562.499 157.772 561.977 157.25 561.333 157.25C560.688 157.25 560.166 157.772 560.166 158.417C560.166 159.061 560.688 159.583 561.333 159.583Z" fill="white"/>
<path d="M556.667 159.583C557.311 159.583 557.833 159.061 557.833 158.417C557.833 157.772 557.311 157.25 556.667 157.25C556.022 157.25 555.5 157.772 555.5 158.417C555.5 159.061 556.022 159.583 556.667 159.583Z" fill="white"/>
<path d="M563.667 163.083C564.311 163.083 564.833 162.561 564.833 161.917C564.833 161.272 564.311 160.75 563.667 160.75C563.022 160.75 562.5 161.272 562.5 161.917C562.5 162.561 563.022 163.083 563.667 163.083Z" fill="white"/>
<path d="M559.001 163.083C559.645 163.083 560.167 162.561 560.167 161.917C560.167 161.272 559.645 160.75 559.001 160.75C558.356 160.75 557.834 161.272 557.834 161.917C557.834 162.561 558.356 163.083 559.001 163.083Z" fill="white"/>
<path d="M552.001 159.583C552.645 159.583 553.167 159.061 553.167 158.417C553.167 157.772 552.645 157.25 552.001 157.25C551.356 157.25 550.834 157.772 550.834 158.417C550.834 159.061 551.356 159.583 552.001 159.583Z" fill="white"/>
<path d="M554.333 163.083C554.977 163.083 555.499 162.561 555.499 161.917C555.499 161.272 554.977 160.75 554.333 160.75C553.688 160.75 553.166 161.272 553.166 161.917C553.166 162.561 553.688 163.083 554.333 163.083Z" fill="white"/>
<path d="M547.333 159.583C547.977 159.583 548.499 159.061 548.499 158.417C548.499 157.772 547.977 157.25 547.333 157.25C546.688 157.25 546.166 157.772 546.166 158.417C546.166 159.061 546.688 159.583 547.333 159.583Z" fill="white"/>
<path d="M549.667 163.083C550.311 163.083 550.833 162.561 550.833 161.917C550.833 161.272 550.311 160.75 549.667 160.75C549.022 160.75 548.5 161.272 548.5 161.917C548.5 162.561 549.022 163.083 549.667 163.083Z" fill="white"/>
<path d="M542.667 159.583C543.311 159.583 543.833 159.061 543.833 158.417C543.833 157.772 543.311 157.25 542.667 157.25C542.022 157.25 541.5 157.772 541.5 158.417C541.5 159.061 542.022 159.583 542.667 159.583Z" fill="white"/>
<path d="M545.001 163.083C545.645 163.083 546.167 162.561 546.167 161.917C546.167 161.272 545.645 160.75 545.001 160.75C544.356 160.75 543.834 161.272 543.834 161.917C543.834 162.561 544.356 163.083 545.001 163.083Z" fill="white"/>
<g clip-path="url(#clip0)">
<path d="M252.318 431.41V472.682H230.65L228.834 453.815L230.65 431.41H252.318Z" fill="white"/>
<path d="M208.982 431.41H230.65V472.682H208.982V431.41Z" fill="white"/>
<path d="M230.65 431.41H237.873V447.919H230.65V431.41Z" fill="white"/>
<path d="M223.428 431.41H230.65V447.919H223.428V431.41Z" fill="white"/>
<path d="M213.109 456.173H225.491V460.3H213.109V456.173Z" fill="white"/>
<path d="M213.109 464.428H219.928V468.555H213.109V464.428Z" fill="white"/>
<path d="M262.637 432.717V472.063C262.637 478.094 257.732 483 251.7 483H230.652L229.488 480.955L230.652 478.873H251.7C255.455 478.873 258.51 475.817 258.51 472.063V432.717C258.51 428.963 255.455 425.907 251.7 425.907H230.652L229.488 423.844L230.652 421.78H251.7C257.732 421.78 262.637 426.686 262.637 432.717Z" fill="white"/>
<path d="M230.651 421.78V425.907H199.966L204.586 432.26L201.248 434.687L193.361 423.844L201.248 413L204.586 415.427L199.966 421.78H230.651Z" fill="white"/>
<path d="M209.601 478.873H230.65V483H209.601C203.57 483 198.664 478.094 198.664 472.063V454.11H202.791V472.063C202.791 475.817 205.847 478.873 209.601 478.873Z" fill="white"/>
</g>
<g clip-path="url(#clip1)">
<path d="M408.84 238.813C409.565 238.813 410.261 238.525 410.773 238.012C411.286 237.499 411.574 236.804 411.574 236.078C411.563 228.02 408.357 220.296 402.658 214.598C396.959 208.901 389.234 205.697 381.176 205.688C380.817 205.688 380.461 205.758 380.129 205.896C379.798 206.033 379.496 206.235 379.242 206.489C378.988 206.743 378.787 207.044 378.65 207.376C378.512 207.707 378.441 208.063 378.441 208.422C378.441 208.781 378.512 209.137 378.65 209.468C378.787 209.8 378.988 210.102 379.242 210.356C379.496 210.609 379.798 210.811 380.129 210.948C380.461 211.086 380.817 211.156 381.176 211.156C387.784 211.164 394.12 213.792 398.793 218.464C403.467 223.136 406.096 229.472 406.105 236.08C406.106 236.805 406.394 237.5 406.907 238.012C407.42 238.525 408.115 238.813 408.84 238.813V238.813Z" fill="#61729B"/>
<path d="M467.262 262.582C467.257 258.375 465.583 254.341 462.608 251.366C459.633 248.391 455.6 246.718 451.393 246.713C450.668 246.713 449.972 247.001 449.459 247.514C448.947 248.027 448.659 248.722 448.659 249.447C448.659 250.173 448.947 250.868 449.459 251.381C449.972 251.894 450.668 252.182 451.393 252.182C454.151 252.182 456.797 253.278 458.747 255.228C460.698 257.179 461.794 259.824 461.794 262.583C461.794 265.341 460.698 267.987 458.747 269.937C456.797 271.888 454.151 272.983 451.393 272.983C450.668 272.983 449.972 273.271 449.459 273.784C448.947 274.297 448.659 274.993 448.659 275.718C448.659 276.443 448.947 277.138 449.459 277.651C449.972 278.164 450.668 278.452 451.393 278.452C455.6 278.447 459.634 276.773 462.609 273.798C465.584 270.823 467.257 266.789 467.262 262.582V262.582Z" fill="#61729B"/>
<path d="M427.287 247.058L427.287 248.23C427.283 251.796 425.865 255.216 423.343 257.737C420.821 260.259 417.402 261.678 413.836 261.681L404.996 261.681C401.43 261.678 398.011 260.259 395.489 257.737C392.967 255.216 391.549 251.796 391.545 248.23C391.545 247.505 391.257 246.809 390.744 246.296C390.231 245.783 389.536 245.495 388.811 245.495C388.085 245.495 387.39 245.783 386.877 246.296C386.364 246.809 386.076 247.505 386.076 248.23C386.082 253.246 388.077 258.055 391.624 261.602C395.171 265.149 399.98 267.144 404.996 267.15L413.836 267.15C418.852 267.144 423.661 265.149 427.208 261.602C430.755 258.055 432.75 253.246 432.756 248.23L432.756 247.058C432.756 246.333 432.468 245.637 431.955 245.124C431.442 244.612 430.747 244.324 430.021 244.324C429.296 244.324 428.601 244.612 428.088 245.124C427.575 245.637 427.287 246.333 427.287 247.058Z" fill="#61729B"/>
<path d="M358.537 264.437C358.537 265.163 358.825 265.858 359.338 266.371C359.851 266.884 360.546 267.172 361.271 267.172C361.997 267.172 362.692 266.884 363.205 266.371C363.718 265.858 364.006 265.163 364.006 264.437L364.006 248.812C364.01 244.618 365.679 240.597 368.645 237.631C371.61 234.665 375.632 232.997 379.826 232.992C380.551 232.992 381.247 232.704 381.76 232.191C382.272 231.679 382.561 230.983 382.561 230.258C382.561 229.533 382.272 228.837 381.76 228.324C381.247 227.812 380.551 227.523 379.826 227.523C374.182 227.53 368.771 229.775 364.78 233.766C360.789 237.757 358.544 243.168 358.537 248.812L358.537 264.437Z" fill="#61729B"/>
<path d="M326.115 274.398C326.121 269.22 328.181 264.256 331.842 260.594C335.504 256.933 340.468 254.873 345.646 254.867C346.372 254.867 347.067 254.579 347.58 254.066C348.093 253.554 348.381 252.858 348.381 252.133C348.381 251.408 348.093 250.712 347.58 250.199C347.067 249.687 346.372 249.398 345.646 249.398C339.018 249.406 332.664 252.042 327.977 256.729C323.29 261.416 320.654 267.77 320.646 274.398C320.646 275.124 320.935 275.819 321.447 276.332C321.96 276.845 322.656 277.133 323.381 277.133C324.106 277.133 324.802 276.845 325.314 276.332C325.827 275.819 326.115 275.124 326.115 274.398V274.398Z" fill="#61729B"/>
<path d="M331.808 235.602C332.139 233.41 333.325 231.439 335.107 230.121C336.889 228.803 339.121 228.245 341.313 228.571C341.67 228.629 342.036 228.616 342.388 228.532C342.74 228.448 343.072 228.295 343.365 228.081C343.657 227.868 343.905 227.599 344.092 227.289C344.28 226.979 344.404 226.636 344.458 226.277C344.512 225.919 344.494 225.554 344.405 225.203C344.317 224.852 344.159 224.522 343.942 224.232C343.725 223.942 343.452 223.699 343.14 223.515C342.828 223.331 342.483 223.212 342.124 223.163C338.497 222.624 334.805 223.546 331.857 225.727C328.909 227.907 326.946 231.167 326.399 234.792C326.379 234.927 326.369 235.064 326.369 235.2C326.369 235.891 326.63 236.555 327.1 237.061C327.57 237.567 328.214 237.876 328.902 237.927C329.591 237.978 330.273 237.766 330.812 237.335C331.351 236.904 331.707 236.285 331.808 235.602V235.602Z" fill="#61729B"/>
<path d="M302.932 263.266C302.935 260.159 304.171 257.18 306.368 254.983C308.565 252.786 311.543 251.55 314.65 251.547C315.376 251.547 316.071 251.259 316.584 250.746C317.097 250.233 317.385 249.538 317.385 248.812C317.385 248.087 317.097 247.392 316.584 246.879C316.071 246.366 315.376 246.078 314.65 246.078C310.094 246.083 305.725 247.896 302.502 251.118C299.28 254.34 297.468 258.709 297.463 263.266C297.463 263.991 297.751 264.686 298.264 265.199C298.777 265.712 299.472 266 300.197 266C300.922 266 301.618 265.712 302.131 265.199C302.644 264.686 302.932 263.991 302.932 263.266Z" fill="#61729B"/>
<path d="M372.991 380.16C372.989 378.236 372.471 376.347 371.491 374.691L406.96 339.222C407.473 338.71 407.761 338.015 407.761 337.289L407.761 293.735L424.683 293.735L424.683 369.683C422.132 370.348 419.911 371.92 418.435 374.105C416.959 376.289 416.33 378.937 416.665 381.552C417 384.167 418.277 386.57 420.256 388.312C422.235 390.053 424.781 391.014 427.418 391.014C430.054 391.014 432.6 390.053 434.579 388.312C436.558 386.57 437.835 384.167 438.17 381.552C438.506 378.937 437.876 376.289 436.4 374.105C434.925 371.92 432.703 370.348 430.152 369.683L430.152 293.735L442.391 293.735L442.391 337.289C442.392 338.015 442.68 338.71 443.193 339.222L454.911 350.941C453.692 353.284 453.368 355.991 454 358.556C454.633 361.121 456.178 363.367 458.347 364.874C460.517 366.382 463.161 367.047 465.785 366.746C468.409 366.444 470.834 365.197 472.604 363.237C474.375 361.277 475.371 358.738 475.405 356.097C475.44 353.456 474.511 350.893 472.791 348.887C471.072 346.882 468.681 345.571 466.066 345.202C463.45 344.832 460.789 345.428 458.582 346.879L447.86 336.157L447.86 293.735L451.994 293.735C460.044 293.729 467.778 290.608 473.577 285.025C479.377 279.443 482.79 271.832 483.102 263.789C483.413 255.745 480.6 247.894 475.251 241.879C469.901 235.864 462.432 232.153 454.407 231.524C453.466 225.121 450.254 219.271 445.358 215.04C440.461 210.809 434.206 208.48 427.735 208.479C424.448 208.476 421.19 209.082 418.124 210.266C414.03 204.405 408.6 199.601 402.283 196.252C395.966 192.903 388.942 191.105 381.793 191.006C374.644 190.907 367.574 192.51 361.166 195.682C354.759 198.855 349.198 203.506 344.943 209.252C341.297 208.359 337.505 208.238 333.81 208.897C330.115 209.555 326.599 210.979 323.486 213.076C320.373 215.173 317.733 217.897 315.734 221.074C313.735 224.251 312.423 227.81 311.88 231.524C303.855 232.153 296.385 235.864 291.036 241.879C285.687 247.895 282.873 255.747 283.186 263.79C283.498 271.834 286.912 279.445 292.711 285.027C298.511 290.609 306.246 293.73 314.296 293.735L314.783 293.735L314.783 323.657L299.974 335.31C297.819 333.769 295.177 333.066 292.541 333.333C289.905 333.601 287.457 334.82 285.656 336.762C283.854 338.704 282.823 341.237 282.754 343.885C282.686 346.533 283.585 349.116 285.283 351.149C286.982 353.181 289.363 354.526 291.982 354.929C294.6 355.332 297.275 354.767 299.507 353.34C301.739 351.912 303.373 349.72 304.105 347.174C304.837 344.628 304.615 341.903 303.482 339.508L319.208 327.133C319.534 326.877 319.796 326.551 319.977 326.179C320.158 325.807 320.252 325.399 320.252 324.985L320.252 293.735L336.658 293.735L336.658 322.613C334.107 323.278 331.886 324.85 330.41 327.034C328.934 329.219 328.305 331.866 328.64 334.481C328.975 337.096 330.252 339.5 332.231 341.241C334.21 342.983 336.756 343.944 339.393 343.944C342.029 343.944 344.575 342.983 346.554 341.241C348.533 339.5 349.81 337.096 350.145 334.481C350.481 331.866 349.851 329.219 348.376 327.034C346.9 324.85 344.678 323.278 342.127 322.613L342.127 293.735L358.533 293.735L358.533 339.799C355.982 340.464 353.761 342.036 352.285 344.22C350.809 346.405 350.18 349.052 350.515 351.667C350.85 354.282 352.127 356.686 354.106 358.427C356.085 360.169 358.631 361.13 361.268 361.13C363.904 361.13 366.45 360.169 368.429 358.427C370.408 356.686 371.685 354.282 372.02 351.667C372.356 349.052 371.726 346.405 370.251 344.22C368.775 342.036 366.553 340.464 364.002 339.799L364.002 293.735L380.408 293.735L380.408 310.171C377.874 310.898 375.692 312.525 374.27 314.745C372.848 316.966 372.284 319.628 372.683 322.234C373.083 324.841 374.418 327.212 376.44 328.905C378.462 330.598 381.031 331.496 383.667 331.431C386.303 331.366 388.825 330.343 390.761 328.553C392.697 326.763 393.914 324.329 394.185 321.706C394.456 319.083 393.762 316.452 392.233 314.304C390.704 312.156 388.444 310.639 385.877 310.036L385.877 293.735L402.283 293.735L402.283 336.157L367.621 370.821C365.56 369.616 363.159 369.127 360.791 369.428C358.424 369.729 356.222 370.803 354.528 372.485C352.834 374.166 351.743 376.36 351.424 378.726C351.105 381.091 351.577 383.496 352.766 385.565C353.955 387.635 355.794 389.254 357.998 390.17C360.202 391.087 362.647 391.25 364.953 390.633C367.259 390.017 369.297 388.656 370.749 386.763C372.202 384.869 372.989 382.548 372.986 380.161L372.991 380.16ZM432.79 380.16C432.79 381.222 432.475 382.261 431.885 383.145C431.295 384.028 430.456 384.717 429.475 385.124C428.493 385.531 427.413 385.637 426.371 385.43C425.329 385.223 424.371 384.712 423.62 383.96C422.868 383.209 422.357 382.252 422.149 381.21C421.942 380.168 422.048 379.088 422.455 378.106C422.861 377.124 423.55 376.285 424.433 375.695C425.317 375.105 426.355 374.789 427.418 374.789C428.842 374.791 430.207 375.357 431.214 376.364C432.221 377.371 432.788 378.736 432.79 380.16V380.16ZM469.901 355.941C469.901 357.003 469.586 358.041 468.995 358.925C468.405 359.808 467.567 360.496 466.585 360.903C465.604 361.309 464.524 361.415 463.483 361.208C462.441 361.001 461.484 360.489 460.733 359.738C459.982 358.987 459.47 358.03 459.263 356.989C459.056 355.947 459.162 354.867 459.569 353.886C459.975 352.905 460.664 352.066 461.547 351.476C462.43 350.886 463.468 350.571 464.53 350.571C465.954 350.572 467.319 351.139 468.326 352.145C469.333 353.152 469.899 354.517 469.901 355.941V355.941ZM293.694 349.496C292.632 349.496 291.594 349.181 290.711 348.591C289.828 348.001 289.139 347.162 288.733 346.181C288.326 345.199 288.22 344.119 288.427 343.078C288.634 342.036 289.146 341.079 289.897 340.328C290.648 339.577 291.605 339.066 292.647 338.858C293.688 338.651 294.768 338.757 295.749 339.164C296.731 339.57 297.569 340.259 298.16 341.142C298.75 342.025 299.065 343.063 299.065 344.125C299.063 345.549 298.497 346.914 297.49 347.921C296.483 348.928 295.118 349.494 293.694 349.496V349.496ZM344.768 333.089C344.768 334.152 344.453 335.191 343.863 336.075C343.273 336.958 342.434 337.647 341.452 338.054C340.471 338.46 339.39 338.567 338.348 338.36C337.306 338.153 336.349 337.641 335.597 336.89C334.846 336.138 334.334 335.181 334.127 334.139C333.92 333.096 334.026 332.016 334.433 331.035C334.84 330.053 335.529 329.214 336.412 328.624C337.296 328.034 338.335 327.719 339.397 327.719C340.821 327.721 342.186 328.287 343.193 329.294C344.2 330.301 344.766 331.666 344.768 333.089V333.089ZM366.643 350.277C366.643 351.34 366.328 352.378 365.738 353.262C365.148 354.146 364.309 354.834 363.327 355.241C362.346 355.648 361.265 355.755 360.223 355.547C359.181 355.34 358.224 354.828 357.472 354.077C356.721 353.326 356.209 352.368 356.002 351.326C355.795 350.284 355.901 349.204 356.308 348.222C356.715 347.24 357.404 346.401 358.287 345.811C359.171 345.221 360.21 344.906 361.272 344.907C362.696 344.908 364.061 345.475 365.068 346.481C366.075 347.488 366.641 348.853 366.643 350.277V350.277ZM388.782 320.58C388.782 321.643 388.467 322.681 387.877 323.565C387.287 324.449 386.448 325.137 385.467 325.544C384.485 325.951 383.405 326.058 382.363 325.851C381.321 325.643 380.363 325.132 379.612 324.381C378.861 323.63 378.349 322.672 378.141 321.63C377.934 320.588 378.04 319.508 378.447 318.526C378.853 317.545 379.542 316.706 380.425 316.115C381.309 315.525 382.347 315.21 383.41 315.21C384.834 315.211 386.199 315.777 387.206 316.784C388.214 317.791 388.78 319.156 388.782 320.58V320.58ZM314.299 288.266C307.522 288.222 301.036 285.501 296.257 280.695C291.477 275.89 288.79 269.39 288.782 262.613C288.774 255.835 291.445 249.329 296.214 244.512C300.982 239.696 307.461 236.959 314.238 236.899C314.282 236.899 314.329 236.899 314.365 236.899C315.065 236.899 315.738 236.631 316.247 236.149C316.755 235.667 317.059 235.009 317.096 234.31C317.266 231.015 318.193 227.804 319.805 224.925C321.417 222.046 323.67 219.578 326.39 217.711C329.11 215.844 332.224 214.629 335.49 214.16C338.755 213.691 342.085 213.981 345.221 215.007C345.786 215.191 346.395 215.186 346.956 214.993C347.518 214.8 348.001 214.429 348.333 213.936C352.027 208.457 357.032 203.989 362.893 200.938C368.755 197.888 375.286 196.352 381.893 196.471C388.5 196.59 394.972 198.36 400.72 201.619C406.467 204.879 411.309 209.524 414.802 215.133C415.16 215.707 415.718 216.128 416.368 216.314C417.019 216.501 417.715 216.44 418.322 216.143C421.51 214.578 425.037 213.83 428.585 213.964C432.134 214.098 435.594 215.112 438.654 216.913C441.715 218.714 444.28 221.246 446.121 224.283C447.961 227.32 449.019 230.766 449.199 234.313C449.236 235.012 449.54 235.67 450.048 236.152C450.556 236.634 451.23 236.902 451.93 236.902C451.965 236.902 452.01 236.902 452.055 236.902C458.833 236.962 465.311 239.699 470.08 244.515C474.848 249.331 477.52 255.837 477.512 262.615C477.504 269.393 474.818 275.892 470.038 280.698C465.258 285.503 458.773 288.225 451.996 288.269L314.299 288.266ZM356.779 380.16C356.779 379.097 357.094 378.059 357.684 377.175C358.274 376.292 359.114 375.603 360.095 375.197C361.077 374.79 362.157 374.684 363.199 374.891C364.241 375.099 365.198 375.61 365.95 376.362C366.701 377.113 367.212 378.071 367.419 379.113C367.626 380.155 367.52 381.235 367.113 382.217C366.706 383.198 366.017 384.037 365.134 384.627C364.25 385.217 363.212 385.532 362.149 385.532C360.725 385.53 359.36 384.963 358.354 383.956C357.347 382.949 356.781 381.584 356.78 380.16L356.779 380.16Z" fill="#61729B"/>
<path d="M412.443 372.055C412.444 369.91 411.808 367.814 410.617 366.031C409.426 364.249 407.733 362.859 405.752 362.038C403.772 361.217 401.592 361.002 399.489 361.421C397.386 361.839 395.454 362.871 393.938 364.387C392.422 365.903 391.389 367.835 390.971 369.938C390.552 372.04 390.767 374.22 391.587 376.201C392.408 378.182 393.797 379.875 395.58 381.067C397.363 382.258 399.459 382.894 401.603 382.894C404.477 382.89 407.232 381.747 409.264 379.715C411.296 377.683 412.44 374.928 412.443 372.055V372.055ZM396.232 372.055C396.232 370.992 396.547 369.953 397.137 369.07C397.727 368.186 398.566 367.497 399.548 367.09C400.529 366.684 401.61 366.577 402.652 366.784C403.694 366.992 404.651 367.503 405.403 368.255C406.154 369.006 406.666 369.963 406.873 371.005C407.08 372.048 406.974 373.128 406.567 374.109C406.16 375.091 405.471 375.93 404.588 376.52C403.704 377.11 402.665 377.425 401.603 377.425C400.179 377.423 398.814 376.857 397.807 375.85C396.8 374.843 396.234 373.478 396.232 372.055V372.055Z" fill="#61729B"/>
<path d="M338.145 372.055C338.145 369.91 337.509 367.814 336.318 366.031C335.127 364.249 333.434 362.859 331.454 362.038C329.473 361.217 327.293 361.002 325.19 361.421C323.087 361.839 321.155 362.871 319.639 364.387C318.123 365.903 317.09 367.835 316.672 369.938C316.253 372.04 316.468 374.22 317.288 376.201C318.109 378.182 319.498 379.875 321.281 381.067C323.064 382.258 325.16 382.894 327.304 382.894C330.178 382.89 332.933 381.747 334.965 379.715C336.997 377.683 338.141 374.928 338.145 372.055V372.055ZM321.934 372.055C321.933 370.992 322.248 369.953 322.838 369.07C323.428 368.186 324.267 367.497 325.249 367.091C326.23 366.684 327.31 366.577 328.353 366.784C329.395 366.991 330.352 367.503 331.103 368.254C331.855 369.005 332.367 369.962 332.574 371.004C332.781 372.047 332.675 373.127 332.269 374.108C331.862 375.09 331.174 375.929 330.29 376.519C329.407 377.11 328.368 377.425 327.305 377.425C325.881 377.424 324.516 376.858 323.509 375.851C322.502 374.844 321.935 373.479 321.934 372.055Z" fill="#61729B"/>
</g>
<g clip-path="url(#clip2)">
<path d="M228 131.25C234.569 131.25 239.895 125.925 239.895 119.356C239.895 112.787 234.569 107.461 228 107.461C221.431 107.461 216.105 112.787 216.105 119.356C216.105 125.925 221.431 131.25 228 131.25Z" fill="white"/>
<path d="M252.062 131.25C256.215 131.25 259.582 127.884 259.582 123.731C259.582 119.578 256.215 116.211 252.062 116.211C247.91 116.211 244.543 119.578 244.543 123.731C244.543 127.884 247.91 131.25 252.062 131.25Z" fill="white"/>
<path d="M203.938 131.25C208.09 131.25 211.457 127.884 211.457 123.731C211.457 119.578 208.09 116.211 203.938 116.211C199.785 116.211 196.418 119.578 196.418 123.731C196.418 127.884 199.785 131.25 203.938 131.25Z" fill="white"/>
<path d="M211.346 138.003C208.386 135.578 205.706 135.899 202.283 135.899C197.164 135.899 193 140.039 193 145.126V160.057C193 162.266 194.803 164.063 197.021 164.063C206.595 164.063 205.441 164.236 205.441 163.65C205.441 153.07 204.188 145.311 211.346 138.003V138.003Z" fill="white"/>
<path d="M231.255 135.953C225.278 135.455 220.082 135.959 215.6 139.658C208.1 145.666 209.543 153.755 209.543 163.65C209.543 166.268 211.673 168.438 214.331 168.438C243.19 168.438 244.338 169.369 246.05 165.579C246.611 164.297 246.457 164.705 246.457 152.444C246.457 142.706 238.025 135.953 231.255 135.953V135.953Z" fill="white"/>
<path d="M253.715 135.899C250.274 135.899 247.608 135.581 244.652 138.003C251.757 145.256 250.557 152.486 250.557 163.65C250.557 164.24 249.6 164.063 258.834 164.063C261.131 164.063 262.999 162.202 262.999 159.915V145.126C262.999 140.038 258.834 135.899 253.715 135.899Z" fill="white"/>
</g>
<path d="M638.312 149V126.25H645.031C647.042 126.25 648.823 126.698 650.375 127.594C651.938 128.49 653.146 129.76 654 131.406C654.854 133.052 655.281 134.938 655.281 137.062V138.203C655.281 140.359 654.849 142.255 653.984 143.891C653.13 145.526 651.906 146.786 650.312 147.672C648.729 148.557 646.911 149 644.859 149H638.312ZM642.266 129.438V145.844H644.844C646.917 145.844 648.505 145.198 649.609 143.906C650.724 142.604 651.292 140.74 651.312 138.312V137.047C651.312 134.578 650.776 132.693 649.703 131.391C648.63 130.089 647.073 129.438 645.031 129.438H642.266ZM668.953 149C668.786 148.677 668.641 148.151 668.516 147.422C667.307 148.682 665.828 149.312 664.078 149.312C662.38 149.312 660.995 148.828 659.922 147.859C658.849 146.891 658.312 145.693 658.312 144.266C658.312 142.464 658.979 141.083 660.312 140.125C661.656 139.156 663.573 138.672 666.062 138.672H668.391V137.562C668.391 136.688 668.146 135.99 667.656 135.469C667.167 134.938 666.422 134.672 665.422 134.672C664.557 134.672 663.849 134.891 663.297 135.328C662.745 135.755 662.469 136.302 662.469 136.969H658.672C658.672 136.042 658.979 135.177 659.594 134.375C660.208 133.562 661.042 132.927 662.094 132.469C663.156 132.01 664.339 131.781 665.641 131.781C667.62 131.781 669.198 132.281 670.375 133.281C671.552 134.271 672.156 135.667 672.188 137.469V145.094C672.188 146.615 672.401 147.828 672.828 148.734V149H668.953ZM664.781 146.266C665.531 146.266 666.234 146.083 666.891 145.719C667.557 145.354 668.057 144.865 668.391 144.25V141.062H666.344C664.938 141.062 663.88 141.307 663.172 141.797C662.464 142.286 662.109 142.979 662.109 143.875C662.109 144.604 662.349 145.188 662.828 145.625C663.318 146.052 663.969 146.266 664.781 146.266ZM680.922 127.984V132.094H683.906V134.906H680.922V144.344C680.922 144.99 681.047 145.458 681.297 145.75C681.557 146.031 682.016 146.172 682.672 146.172C683.109 146.172 683.552 146.12 684 146.016V148.953C683.135 149.193 682.302 149.312 681.5 149.312C678.583 149.312 677.125 147.703 677.125 144.484V134.906H674.344V132.094H677.125V127.984H680.922ZM696.922 149C696.755 148.677 696.609 148.151 696.484 147.422C695.276 148.682 693.797 149.312 692.047 149.312C690.349 149.312 688.964 148.828 687.891 147.859C686.818 146.891 686.281 145.693 686.281 144.266C686.281 142.464 686.948 141.083 688.281 140.125C689.625 139.156 691.542 138.672 694.031 138.672H696.359V137.562C696.359 136.688 696.115 135.99 695.625 135.469C695.135 134.938 694.391 134.672 693.391 134.672C692.526 134.672 691.818 134.891 691.266 135.328C690.714 135.755 690.438 136.302 690.438 136.969H686.641C686.641 136.042 686.948 135.177 687.562 134.375C688.177 133.562 689.01 132.927 690.062 132.469C691.125 132.01 692.307 131.781 693.609 131.781C695.589 131.781 697.167 132.281 698.344 133.281C699.521 134.271 700.125 135.667 700.156 137.469V145.094C700.156 146.615 700.37 147.828 700.797 148.734V149H696.922ZM692.75 146.266C693.5 146.266 694.203 146.083 694.859 145.719C695.526 145.354 696.026 144.865 696.359 144.25V141.062H694.312C692.906 141.062 691.849 141.307 691.141 141.797C690.432 142.286 690.078 142.979 690.078 143.875C690.078 144.604 690.318 145.188 690.797 145.625C691.286 146.052 691.938 146.266 692.75 146.266Z" fill="#61729B"/>
<path d="M641.047 459.703H632.234L630.391 465H626.281L634.875 442.25H638.422L647.031 465H642.906L641.047 459.703ZM633.344 456.516H639.938L636.641 447.078L633.344 456.516ZM653.797 465H649.859V442.25H653.797V465ZM670.578 456.547V465H666.625V442.25H675.328C677.87 442.25 679.885 442.911 681.375 444.234C682.875 445.557 683.625 447.307 683.625 449.484C683.625 451.714 682.891 453.448 681.422 454.688C679.964 455.927 677.917 456.547 675.281 456.547H670.578ZM670.578 453.375H675.328C676.734 453.375 677.807 453.047 678.547 452.391C679.286 451.724 679.656 450.766 679.656 449.516C679.656 448.286 679.281 447.307 678.531 446.578C677.781 445.839 676.75 445.458 675.438 445.438H670.578V453.375ZM690.766 465H686.969V441H690.766V465ZM705.016 465C704.849 464.677 704.703 464.151 704.578 463.422C703.37 464.682 701.891 465.312 700.141 465.312C698.443 465.312 697.057 464.828 695.984 463.859C694.911 462.891 694.375 461.693 694.375 460.266C694.375 458.464 695.042 457.083 696.375 456.125C697.719 455.156 699.635 454.672 702.125 454.672H704.453V453.562C704.453 452.688 704.208 451.99 703.719 451.469C703.229 450.938 702.484 450.672 701.484 450.672C700.62 450.672 699.911 450.891 699.359 451.328C698.807 451.755 698.531 452.302 698.531 452.969H694.734C694.734 452.042 695.042 451.177 695.656 450.375C696.271 449.562 697.104 448.927 698.156 448.469C699.219 448.01 700.401 447.781 701.703 447.781C703.682 447.781 705.26 448.281 706.438 449.281C707.615 450.271 708.219 451.667 708.25 453.469V461.094C708.25 462.615 708.464 463.828 708.891 464.734V465H705.016ZM700.844 462.266C701.594 462.266 702.297 462.083 702.953 461.719C703.62 461.354 704.12 460.865 704.453 460.25V457.062H702.406C701 457.062 699.943 457.307 699.234 457.797C698.526 458.286 698.172 458.979 698.172 459.875C698.172 460.604 698.411 461.188 698.891 461.625C699.38 462.052 700.031 462.266 700.844 462.266ZM716.984 443.984V448.094H719.969V450.906H716.984V460.344C716.984 460.99 717.109 461.458 717.359 461.75C717.62 462.031 718.078 462.172 718.734 462.172C719.172 462.172 719.615 462.12 720.062 462.016V464.953C719.198 465.193 718.365 465.312 717.562 465.312C714.646 465.312 713.188 463.703 713.188 460.484V450.906H710.406V448.094H713.188V443.984H716.984ZM724.219 465V450.906H721.641V448.094H724.219V446.547C724.219 444.672 724.74 443.224 725.781 442.203C726.823 441.182 728.281 440.672 730.156 440.672C730.823 440.672 731.531 440.766 732.281 440.953L732.188 443.922C731.771 443.839 731.286 443.797 730.734 443.797C728.922 443.797 728.016 444.729 728.016 446.594V448.094H731.453V450.906H728.016V465H724.219ZM733.516 456.391C733.516 454.734 733.844 453.245 734.5 451.922C735.156 450.589 736.078 449.568 737.266 448.859C738.453 448.141 739.818 447.781 741.359 447.781C743.641 447.781 745.49 448.516 746.906 449.984C748.333 451.453 749.104 453.401 749.219 455.828L749.234 456.719C749.234 458.385 748.911 459.875 748.266 461.188C747.63 462.5 746.714 463.516 745.516 464.234C744.328 464.953 742.953 465.312 741.391 465.312C739.005 465.312 737.094 464.521 735.656 462.938C734.229 461.344 733.516 459.224 733.516 456.578V456.391ZM737.312 456.719C737.312 458.458 737.672 459.823 738.391 460.812C739.109 461.792 740.109 462.281 741.391 462.281C742.672 462.281 743.667 461.781 744.375 460.781C745.094 459.781 745.453 458.318 745.453 456.391C745.453 454.682 745.083 453.328 744.344 452.328C743.615 451.328 742.62 450.828 741.359 450.828C740.12 450.828 739.135 451.323 738.406 452.312C737.677 453.292 737.312 454.76 737.312 456.719ZM761.297 451.562C760.797 451.479 760.281 451.438 759.75 451.438C758.01 451.438 756.839 452.104 756.234 453.438V465H752.438V448.094H756.062L756.156 449.984C757.073 448.516 758.344 447.781 759.969 447.781C760.51 447.781 760.958 447.854 761.312 448L761.297 451.562ZM767.266 448.094L767.375 449.859C768.562 448.474 770.188 447.781 772.25 447.781C774.51 447.781 776.057 448.646 776.891 450.375C778.12 448.646 779.849 447.781 782.078 447.781C783.943 447.781 785.328 448.297 786.234 449.328C787.151 450.359 787.62 451.88 787.641 453.891V465H783.844V454C783.844 452.927 783.609 452.141 783.141 451.641C782.672 451.141 781.896 450.891 780.812 450.891C779.948 450.891 779.24 451.125 778.688 451.594C778.146 452.052 777.766 452.656 777.547 453.406L777.562 465H773.766V453.875C773.714 451.885 772.698 450.891 770.719 450.891C769.198 450.891 768.12 451.51 767.484 452.75V465H763.688V448.094H767.266Z" fill="#61729B"/>
<path d="M32.4688 450.219C32.4688 452.448 32.0833 454.406 31.3125 456.094C30.5417 457.771 29.4375 459.062 28 459.969C26.5729 460.865 24.9271 461.312 23.0625 461.312C21.2188 461.312 19.5729 460.865 18.125 459.969C16.6875 459.062 15.5729 457.776 14.7812 456.109C14 454.443 13.6042 452.521 13.5938 450.344V449.062C13.5938 446.844 13.9844 444.885 14.7656 443.188C15.5573 441.49 16.6667 440.193 18.0938 439.297C19.5312 438.391 21.1771 437.938 23.0312 437.938C24.8854 437.938 26.526 438.385 27.9531 439.281C29.3906 440.167 30.5 441.448 31.2812 443.125C32.0625 444.792 32.4583 446.734 32.4688 448.953V450.219ZM28.5156 449.031C28.5156 446.51 28.0365 444.578 27.0781 443.234C26.1302 441.891 24.7812 441.219 23.0312 441.219C21.3229 441.219 19.9844 441.891 19.0156 443.234C18.0573 444.568 17.5677 446.458 17.5469 448.906V450.219C17.5469 452.719 18.0312 454.651 19 456.016C19.9792 457.38 21.3333 458.062 23.0625 458.062C24.8125 458.062 26.1562 457.396 27.0938 456.062C28.0417 454.729 28.5156 452.781 28.5156 450.219V449.031ZM37.375 461V446.906H34.7969V444.094H37.375V442.547C37.375 440.672 37.8958 439.224 38.9375 438.203C39.9792 437.182 41.4375 436.672 43.3125 436.672C43.9792 436.672 44.6875 436.766 45.4375 436.953L45.3438 439.922C44.9271 439.839 44.4427 439.797 43.8906 439.797C42.0781 439.797 41.1719 440.729 41.1719 442.594V444.094H44.6094V446.906H41.1719V461H37.375ZM48.7188 461V446.906H46.1406V444.094H48.7188V442.547C48.7188 440.672 49.2396 439.224 50.2812 438.203C51.3229 437.182 52.7812 436.672 54.6562 436.672C55.3229 436.672 56.0312 436.766 56.7812 436.953L56.6875 439.922C56.2708 439.839 55.7865 439.797 55.2344 439.797C53.4219 439.797 52.5156 440.729 52.5156 442.594V444.094H55.9531V446.906H52.5156V461H48.7188ZM65.7969 461.312C63.3906 461.312 61.4375 460.557 59.9375 459.047C58.4479 457.526 57.7031 455.505 57.7031 452.984V452.516C57.7031 450.828 58.026 449.323 58.6719 448C59.3281 446.667 60.2448 445.63 61.4219 444.891C62.599 444.151 63.9115 443.781 65.3594 443.781C67.6615 443.781 69.4375 444.516 70.6875 445.984C71.9479 447.453 72.5781 449.531 72.5781 452.219V453.75H61.5312C61.6458 455.146 62.1094 456.25 62.9219 457.062C63.7448 457.875 64.776 458.281 66.0156 458.281C67.7552 458.281 69.1719 457.578 70.2656 456.172L72.3125 458.125C71.6354 459.135 70.7292 459.922 69.5938 460.484C68.4688 461.036 67.2031 461.312 65.7969 461.312ZM65.3438 446.828C64.3021 446.828 63.4583 447.193 62.8125 447.922C62.1771 448.651 61.7708 449.667 61.5938 450.969H68.8281V450.688C68.7448 449.417 68.4062 448.458 67.8125 447.812C67.2188 447.156 66.3958 446.828 65.3438 446.828ZM84.3906 447.562C83.8906 447.479 83.375 447.438 82.8438 447.438C81.1042 447.438 79.9323 448.104 79.3281 449.438V461H75.5312V444.094H79.1562L79.25 445.984C80.1667 444.516 81.4375 443.781 83.0625 443.781C83.6042 443.781 84.0521 443.854 84.4062 444L84.3906 447.562ZM90.8281 461H87.0312V444.094H90.8281V461ZM86.7969 439.703C86.7969 439.12 86.9792 438.635 87.3438 438.25C87.7188 437.865 88.25 437.672 88.9375 437.672C89.625 437.672 90.1562 437.865 90.5312 438.25C90.9062 438.635 91.0938 439.12 91.0938 439.703C91.0938 440.276 90.9062 440.755 90.5312 441.141C90.1562 441.516 89.625 441.703 88.9375 441.703C88.25 441.703 87.7188 441.516 87.3438 441.141C86.9792 440.755 86.7969 440.276 86.7969 439.703ZM98.5 444.094L98.6094 446.047C99.8594 444.536 101.5 443.781 103.531 443.781C107.052 443.781 108.844 445.797 108.906 449.828V461H105.109V450.047C105.109 448.974 104.875 448.182 104.406 447.672C103.948 447.151 103.193 446.891 102.141 446.891C100.609 446.891 99.4688 447.583 98.7188 448.969V461H94.9219V444.094H98.5ZM112.125 452.422C112.125 449.797 112.74 447.703 113.969 446.141C115.208 444.568 116.849 443.781 118.891 443.781C120.818 443.781 122.333 444.453 123.438 445.797L123.609 444.094H127.031V460.484C127.031 462.703 126.339 464.453 124.953 465.734C123.578 467.016 121.719 467.656 119.375 467.656C118.135 467.656 116.922 467.396 115.734 466.875C114.557 466.365 113.661 465.693 113.047 464.859L114.844 462.578C116.01 463.964 117.448 464.656 119.156 464.656C120.417 464.656 121.411 464.312 122.141 463.625C122.87 462.948 123.234 461.948 123.234 460.625V459.484C122.141 460.703 120.682 461.312 118.859 461.312C116.88 461.312 115.26 460.526 114 458.953C112.75 457.38 112.125 455.203 112.125 452.422ZM115.906 452.75C115.906 454.448 116.25 455.786 116.938 456.766C117.635 457.734 118.599 458.219 119.828 458.219C121.359 458.219 122.495 457.562 123.234 456.25V448.812C122.516 447.531 121.391 446.891 119.859 446.891C118.609 446.891 117.635 447.385 116.938 448.375C116.25 449.365 115.906 450.823 115.906 452.75Z" fill="#61729B"/>
<path d="M19.6719 141.594C19.4427 144.021 18.5469 145.917 16.9844 147.281C15.4219 148.635 13.3438 149.312 10.75 149.312C8.9375 149.312 7.33854 148.885 5.95312 148.031C4.57812 147.167 3.51562 145.943 2.76562 144.359C2.01562 142.776 1.625 140.938 1.59375 138.844V136.719C1.59375 134.573 1.97396 132.682 2.73438 131.047C3.49479 129.411 4.58333 128.151 6 127.266C7.42708 126.38 9.07292 125.938 10.9375 125.938C13.4479 125.938 15.4688 126.62 17 127.984C18.5312 129.349 19.4219 131.276 19.6719 133.766H15.7344C15.5469 132.13 15.0677 130.953 14.2969 130.234C13.5365 129.505 12.4167 129.141 10.9375 129.141C9.21875 129.141 7.89583 129.771 6.96875 131.031C6.05208 132.281 5.58333 134.12 5.5625 136.547V138.562C5.5625 141.021 6 142.896 6.875 144.188C7.76042 145.479 9.05208 146.125 10.75 146.125C12.3021 146.125 13.4688 145.776 14.25 145.078C15.0312 144.38 15.526 143.219 15.7344 141.594H19.6719ZM33.0938 147.344C31.9792 148.656 30.3958 149.312 28.3438 149.312C26.5104 149.312 25.1198 148.776 24.1719 147.703C23.2344 146.63 22.7656 145.078 22.7656 143.047V132.094H26.5625V143C26.5625 145.146 27.4531 146.219 29.2344 146.219C31.0781 146.219 32.3229 145.557 32.9688 144.234V132.094H36.7656V149H33.1875L33.0938 147.344ZM50.1094 144.406C50.1094 143.729 49.8281 143.214 49.2656 142.859C48.7135 142.505 47.7917 142.193 46.5 141.922C45.2083 141.651 44.1302 141.307 43.2656 140.891C41.3698 139.974 40.4219 138.646 40.4219 136.906C40.4219 135.448 41.0365 134.229 42.2656 133.25C43.4948 132.271 45.0573 131.781 46.9531 131.781C48.974 131.781 50.6042 132.281 51.8438 133.281C53.0938 134.281 53.7188 135.578 53.7188 137.172H49.9219C49.9219 136.443 49.651 135.839 49.1094 135.359C48.5677 134.87 47.849 134.625 46.9531 134.625C46.1198 134.625 45.4375 134.818 44.9062 135.203C44.3854 135.589 44.125 136.104 44.125 136.75C44.125 137.333 44.3698 137.786 44.8594 138.109C45.349 138.432 46.3385 138.76 47.8281 139.094C49.3177 139.417 50.4844 139.807 51.3281 140.266C52.1823 140.714 52.8125 141.255 53.2188 141.891C53.6354 142.526 53.8438 143.297 53.8438 144.203C53.8438 145.724 53.2135 146.958 51.9531 147.906C50.6927 148.844 49.0417 149.312 47 149.312C45.6146 149.312 44.3802 149.062 43.2969 148.562C42.2135 148.062 41.3698 147.375 40.7656 146.5C40.1615 145.625 39.8594 144.682 39.8594 143.672H43.5469C43.599 144.568 43.9375 145.26 44.5625 145.75C45.1875 146.229 46.0156 146.469 47.0469 146.469C48.0469 146.469 48.8073 146.281 49.3281 145.906C49.849 145.521 50.1094 145.021 50.1094 144.406ZM61.9219 127.984V132.094H64.9062V134.906H61.9219V144.344C61.9219 144.99 62.0469 145.458 62.2969 145.75C62.5573 146.031 63.0156 146.172 63.6719 146.172C64.1094 146.172 64.5521 146.12 65 146.016V148.953C64.1354 149.193 63.3021 149.312 62.5 149.312C59.5833 149.312 58.125 147.703 58.125 144.484V134.906H55.3438V132.094H58.125V127.984H61.9219ZM66.6406 140.391C66.6406 138.734 66.9688 137.245 67.625 135.922C68.2812 134.589 69.2031 133.568 70.3906 132.859C71.5781 132.141 72.9427 131.781 74.4844 131.781C76.7656 131.781 78.6146 132.516 80.0312 133.984C81.4583 135.453 82.2292 137.401 82.3438 139.828L82.3594 140.719C82.3594 142.385 82.0365 143.875 81.3906 145.188C80.7552 146.5 79.8385 147.516 78.6406 148.234C77.4531 148.953 76.0781 149.312 74.5156 149.312C72.1302 149.312 70.2188 148.521 68.7812 146.938C67.3542 145.344 66.6406 143.224 66.6406 140.578V140.391ZM70.4375 140.719C70.4375 142.458 70.7969 143.823 71.5156 144.812C72.2344 145.792 73.2344 146.281 74.5156 146.281C75.7969 146.281 76.7917 145.781 77.5 144.781C78.2188 143.781 78.5781 142.318 78.5781 140.391C78.5781 138.682 78.2083 137.328 77.4688 136.328C76.7396 135.328 75.7448 134.828 74.4844 134.828C73.2448 134.828 72.2604 135.323 71.5312 136.312C70.8021 137.292 70.4375 138.76 70.4375 140.719ZM89.1406 132.094L89.25 133.859C90.4375 132.474 92.0625 131.781 94.125 131.781C96.3854 131.781 97.9323 132.646 98.7656 134.375C99.9948 132.646 101.724 131.781 103.953 131.781C105.818 131.781 107.203 132.297 108.109 133.328C109.026 134.359 109.495 135.88 109.516 137.891V149H105.719V138C105.719 136.927 105.484 136.141 105.016 135.641C104.547 135.141 103.771 134.891 102.688 134.891C101.823 134.891 101.115 135.125 100.562 135.594C100.021 136.052 99.6406 136.656 99.4219 137.406L99.4375 149H95.6406V137.875C95.5885 135.885 94.5729 134.891 92.5938 134.891C91.0729 134.891 89.9948 135.51 89.3594 136.75V149H85.5625V132.094H89.1406ZM120.859 149.312C118.453 149.312 116.5 148.557 115 147.047C113.51 145.526 112.766 143.505 112.766 140.984V140.516C112.766 138.828 113.089 137.323 113.734 136C114.391 134.667 115.307 133.63 116.484 132.891C117.661 132.151 118.974 131.781 120.422 131.781C122.724 131.781 124.5 132.516 125.75 133.984C127.01 135.453 127.641 137.531 127.641 140.219V141.75H116.594C116.708 143.146 117.172 144.25 117.984 145.062C118.807 145.875 119.839 146.281 121.078 146.281C122.818 146.281 124.234 145.578 125.328 144.172L127.375 146.125C126.698 147.135 125.792 147.922 124.656 148.484C123.531 149.036 122.266 149.312 120.859 149.312ZM120.406 134.828C119.365 134.828 118.521 135.193 117.875 135.922C117.24 136.651 116.833 137.667 116.656 138.969H123.891V138.688C123.807 137.417 123.469 136.458 122.875 135.812C122.281 135.156 121.458 134.828 120.406 134.828ZM139.453 135.562C138.953 135.479 138.438 135.438 137.906 135.438C136.167 135.438 134.995 136.104 134.391 137.438V149H130.594V132.094H134.219L134.312 133.984C135.229 132.516 136.5 131.781 138.125 131.781C138.667 131.781 139.115 131.854 139.469 132L139.453 135.562Z" fill="#61729B"/>
<path d="M573 449.986C573 445.93 570.873 442.185 567.477 440.082C568.227 438.519 568.618 436.806 568.618 435.054C568.618 430.013 562.394 425.928 558.319 423.795C557.883 417.769 552.844 413 546.713 413C543.245 413 540.072 414.401 537.903 416.82C535.715 414.401 532.61 413 529.287 413C525.254 413 521.437 415.164 519.342 418.608C518.375 420.198 517.798 422.016 517.677 423.873C517.676 423.884 517.675 423.894 517.674 423.905C517.428 424.03 517.13 424.187 516.766 424.383C515.852 424.877 514.47 425.677 513.083 426.681C509.3 429.42 507.382 432.237 507.382 435.054C507.382 436.806 507.773 438.519 508.523 440.082C505.127 442.185 503 445.93 503 449.986C503 453.907 504.946 457.505 508.154 459.654C507.647 460.98 507.382 462.4 507.382 463.823C507.382 468.029 509.603 471.84 513.222 473.917C514.742 479.217 520.795 483 527.918 483C531.603 483 535.211 481.918 537.992 480.011C540.756 481.943 544.294 483 548.082 483C555.205 483 561.258 479.217 562.778 473.917C566.397 471.84 568.618 468.029 568.618 463.823C568.618 462.4 568.353 460.98 567.846 459.654C571.054 457.505 573 453.907 573 449.986ZM527.918 480.266C521.896 480.266 516.659 477.019 515.738 472.714C515.651 472.309 515.386 471.966 515.017 471.779C512.808 470.664 511.211 468.735 510.511 466.458C511.654 467.027 512.885 467.317 514.169 467.317H514.173C516.033 467.317 517.942 466.635 519.377 465.455C519.942 464.991 520.026 464.09 519.567 463.53C519.105 462.968 518.203 462.882 517.643 463.341C516.651 464.153 515.451 464.582 514.17 464.582C512.637 464.582 511.205 463.953 510.17 462.843C510.288 461.757 510.603 460.713 511.112 459.73C511.459 459.061 511.199 458.237 510.53 457.889C507.572 456.347 505.734 453.318 505.734 449.986C505.734 446.502 507.786 443.318 510.96 441.874C511.322 441.71 511.595 441.396 511.707 441.014C511.818 440.632 511.758 440.221 511.542 439.887C510.609 438.445 510.116 436.774 510.116 435.054C510.116 431.812 514.767 428.577 517.872 426.883C518.434 429.726 520.047 432.304 522.422 434.043C523 434.466 523.901 434.338 524.333 433.747C524.779 433.138 524.647 432.283 524.038 431.837C520.589 429.312 519.411 424.477 521.327 420.658C522.824 417.675 525.948 415.734 529.287 415.734C532.189 415.734 534.874 417.132 536.547 419.491L536.547 419.629C536.542 420.53 536.539 422.53 536.542 427.051H528.937C528.384 427.051 527.885 427.384 527.674 427.894C527.462 428.405 527.579 428.993 527.97 429.384C530.107 431.522 530.107 435.001 527.97 437.138C525.897 439.212 522.288 439.206 520.222 437.138C519.688 436.604 518.822 436.604 518.288 437.138C517.754 437.672 517.754 438.537 518.288 439.071C518.499 439.283 518.72 439.48 518.949 439.665L515.488 443.22C513.627 445.089 513.629 448.123 515.494 449.99C517.323 451.819 520.449 451.811 522.27 449.99C522.803 449.456 522.803 448.59 522.269 448.056C521.735 447.522 520.87 447.523 520.336 448.056C519.583 448.81 518.207 448.835 517.429 448.057C516.627 447.254 516.627 445.949 517.429 445.146C517.433 445.142 517.437 445.138 517.441 445.133C517.441 445.133 521.43 441.037 521.431 441.036C521.477 440.988 522.861 441.388 523.035 441.41C525.55 441.736 528.113 440.863 529.904 439.071C532.409 436.564 532.954 432.827 531.538 429.785H536.545C536.548 433.282 536.554 437.908 536.562 444.03H533.215V443.685C533.215 442.93 532.603 442.317 531.848 442.317C531.093 442.317 530.48 442.93 530.48 443.685V447.11C530.48 447.865 531.093 448.477 531.848 448.477C532.603 448.477 533.215 447.865 533.215 447.11V446.765H536.566C536.567 447.411 536.576 453.499 536.58 455.812H532.753C532.522 455.174 532.152 454.576 531.641 454.065C530.736 453.159 529.533 452.661 528.254 452.661C526.974 452.661 525.771 453.159 524.866 454.065C524.332 454.599 524.333 455.465 524.867 455.998C525.401 456.532 526.266 456.532 526.8 455.998C528.616 454.182 531.591 457.024 529.707 458.909C529.173 459.443 529.174 460.308 529.708 460.842C530.223 461.357 531.113 461.37 531.641 460.842C532.295 460.187 532.72 459.388 532.915 458.546H536.584C536.589 461.696 536.595 464.677 536.6 467.324H525.874C525.511 467.324 525.163 467.468 524.907 467.724C523.039 469.593 523.039 472.632 524.906 474.501C526.721 476.317 529.877 476.306 531.682 474.501C532.215 473.967 532.215 473.101 531.681 472.567C531.147 472.034 530.282 472.034 529.748 472.568C528.979 473.336 527.605 473.332 526.841 472.568C526.162 471.888 526.057 470.848 526.528 470.058H536.606C536.611 472.393 536.625 477.201 536.627 477.635C534.276 479.313 531.142 480.266 527.918 480.266ZM565.47 457.889C564.801 458.238 564.541 459.061 564.888 459.73C565.549 461.006 565.884 462.383 565.884 463.823C565.884 467.205 564.006 470.254 560.983 471.78C560.614 471.966 560.349 472.31 560.263 472.714C559.341 477.019 554.104 480.266 548.082 480.266C544.815 480.266 541.678 479.313 539.366 477.637L539.355 470.058H544.297C544.794 472.173 546.695 473.753 548.959 473.753C551.6 473.753 553.749 471.603 553.749 468.961C553.749 466.318 551.6 464.168 548.959 464.168C546.892 464.168 545.127 465.485 544.457 467.323H539.351L539.338 458.546H552.036C552.626 460.525 554.46 461.971 556.627 461.971C559.268 461.971 561.417 459.822 561.417 457.179C561.417 454.537 559.268 452.387 556.627 452.387C554.46 452.387 552.626 453.834 552.036 455.812H539.334L539.321 446.765H542.314C542.904 448.743 544.738 450.19 546.905 450.19C549.546 450.19 551.695 448.04 551.695 445.397C551.695 442.755 549.546 440.605 546.905 440.605C544.738 440.605 542.904 442.052 542.314 444.03H539.317L539.297 429.785H543.29C543.898 431.733 545.718 433.151 547.864 433.151C550.505 433.151 552.654 431.001 552.654 428.359C552.654 425.716 550.505 423.567 547.864 423.567C545.676 423.567 543.827 425.042 543.256 427.051H539.293L539.281 419.479C540.904 417.127 543.653 415.734 546.713 415.734C551.621 415.734 555.615 419.73 555.615 424.642C555.615 425.486 556.279 425.822 556.562 425.966C562.399 428.923 565.884 432.32 565.884 435.054C565.884 438.458 563.654 442.466 559.921 442.586C559.556 442.597 559.217 442.75 558.967 443.017C558.717 443.282 558.586 443.631 558.598 443.996C558.609 444.352 558.757 444.686 559.014 444.935C559.269 445.184 559.607 445.32 559.964 445.32H559.968C559.98 445.32 559.994 445.32 560.006 445.319C562.292 445.062 564.513 444.199 566.027 442.402C568.633 444.01 570.266 446.878 570.266 449.986C570.266 453.318 568.428 456.347 565.47 457.889ZM546.903 468.961C546.903 467.826 547.825 466.903 548.959 466.903C550.093 466.903 551.015 467.826 551.015 468.961C551.015 470.095 550.093 471.018 548.959 471.018C547.825 471.018 546.903 470.095 546.903 468.961ZM554.571 457.179C554.571 456.044 555.493 455.121 556.627 455.121C557.761 455.121 558.683 456.044 558.683 457.179C558.683 458.314 557.761 459.237 556.627 459.237C555.493 459.237 554.571 458.314 554.571 457.179ZM544.849 445.397C544.849 444.263 545.772 443.34 546.905 443.34C548.039 443.34 548.961 444.263 548.961 445.397C548.961 446.532 548.039 447.455 546.905 447.455C545.772 447.455 544.849 446.532 544.849 445.397ZM545.808 428.359C545.808 427.224 546.73 426.301 547.864 426.301C548.997 426.301 549.92 427.224 549.92 428.359C549.92 429.493 548.997 430.416 547.864 430.416C546.73 430.416 545.808 429.493 545.808 428.359Z" fill="white"/>
<path d="M521.106 458.326C520.726 458.294 520.349 458.422 520.067 458.679C519.813 458.912 519.657 459.229 519.628 459.572C519.597 459.937 519.709 460.291 519.945 460.57C520.181 460.849 520.51 461.02 520.874 461.051C520.913 461.054 520.952 461.055 520.991 461.055C521.333 461.055 521.66 460.928 521.913 460.697C522.167 460.465 522.323 460.147 522.353 459.804C522.353 459.803 522.353 459.803 522.352 459.803C522.415 459.052 521.857 458.389 521.106 458.326Z" fill="white"/>
<path d="M555.948 441.053C555.948 441.053 555.948 441.053 555.947 441.052C555.691 440.804 555.354 440.669 554.998 440.669C554.624 440.669 554.274 440.817 554.014 441.086C553.761 441.349 553.624 441.695 553.631 442.06C553.637 442.425 553.784 442.765 554.047 443.018C554.047 443.018 554.047 443.019 554.048 443.019C554.304 443.267 554.641 443.404 554.997 443.404C555.372 443.404 555.722 443.254 555.981 442.985C556.504 442.444 556.49 441.578 555.948 441.053Z" fill="white"/>
<defs>
<clipPath id="clip0">
<rect width="70" height="70" fill="white" transform="translate(193 413)"/>
</clipPath>
<clipPath id="clip1">
<rect width="200" height="200" fill="white" transform="translate(483 191) rotate(90)"/>
</clipPath>
<clipPath id="clip2">
<rect width="70" height="70" fill="white" transform="translate(193 103)"/>
</clipPath>
</defs>
</svg>
