<?xml version="1.0" encoding="utf-8"?>
<!-- Generator: Adobe Illustrator 22.1.0, SVG Export Plug-In . SVG Version: 6.00 Build 0)  -->
<svg version="1.1" id="Layer_1" xmlns="http://www.w3.org/2000/svg" xmlns:xlink="http://www.w3.org/1999/xlink" x="0px" y="0px"
	 viewBox="0 0 301.79 298.47" style="enable-background:new 0 0 301.79 298.47;" xml:space="preserve">
<style type="text/css">
	.st0{opacity:0.12;fill:#6BE0E0;}
	.st1{fill:#6BE0E0;}
	.st2{fill:#032147;}
</style>
<path class="st0" d="M292.8,104.95c-2.05-4.29-4.38-8.29-6.96-12l0.04,0.03c0,0-41.86-65.24-121.26-88.81l0.04,0.03
	c-21.59-7.54-46.57-5.12-68.95,8.97C73.35,27.23,58.13,50.08,52.02,75.02c-25.37,89.3-0.28,164.76-0.14,165.2
	c1.33,4.48,3.01,8.88,5.05,13.15c16.63,34.87,52.1,51.06,86.92,43.09c0,0,56.16-10.67,124.22-74.26l0,0
	C300.14,193.28,311.41,143.98,292.8,104.95z"/>
<path class="st0" d="M289.68,184.91c0-4.7-0.38-9.32-1.11-13.82l0.03,0.05c0,0-9.67-77.23-70.97-139.25l0.02,0.04
	c-16.19-17.82-39.69-29.03-65.86-29.03c-26.14,0-49.63,11.2-65.82,28.99C24.85,93.73,15.06,170.69,15,171.14
	c-0.72,4.49-1.1,9.08-1.1,13.77c0,38.23,24.96,70.71,59.69,82.47c0,0,55.08,20.81,143.56,3.3h0
	C258.4,263.3,289.68,227.71,289.68,184.91z"/>
<g>
	<path class="st1" d="M152.42,195.84l-0.3-131.92c-13.65,0.75-26.78,3.7-39.22,8.45v123.55L152.42,195.84z"/>
	<path class="st2" d="M159.44,195.84l0.23-131.92c13.65,0.75,26.85,3.7,39.22,8.45v123.55L159.44,195.84z"/>
</g>
<path id="Oval-4-Copy" class="st1" d="M70.1,85.26c0-0.8,0.6-1.5,1.5-1.5s1.5,0.6,1.5,1.5c0,0.8-0.6,1.5-1.5,1.5
	C70.7,86.66,70.1,86.06,70.1,85.26z M46.8,85.26c0-0.8,0.6-1.5,1.5-1.5s1.5,0.6,1.5,1.5c0,0.8-0.6,1.5-1.5,1.5
	S46.8,86.06,46.8,85.26z M70.1,108.66c0-0.8,0.6-1.5,1.5-1.5s1.5,0.6,1.5,1.5c0,0.8-0.6,1.5-1.5,1.5S70.1,109.46,70.1,108.66z
	 M46.8,108.66c0-0.8,0.6-1.5,1.5-1.5s1.5,0.6,1.5,1.5c0,0.8-0.6,1.5-1.5,1.5S46.8,109.46,46.8,108.66z M46.8,132.06
	c0-0.8,0.6-1.5,1.5-1.5s1.5,0.6,1.5,1.5c0,0.8-0.6,1.5-1.5,1.5S46.8,132.76,46.8,132.06L46.8,132.06z M70.1,62.06
	c0-0.8,0.6-1.5,1.5-1.5s1.5,0.6,1.5,1.5l0,0c0,0.8-0.6,1.5-1.5,1.5C70.7,63.46,70.1,62.66,70.1,62.06z M70.1,155.36
	c0-0.8,0.6-1.5,1.5-1.5s1.5,0.6,1.5,1.5c0,0.8-0.6,1.5-1.5,1.5C70.7,156.76,70.1,156.16,70.1,155.36z M46.8,155.36
	c0-0.8,0.6-1.5,1.5-1.5s1.5,0.6,1.5,1.5c0,0.8-0.6,1.5-1.5,1.5S46.8,156.16,46.8,155.36z M70.1,178.76c0-0.8,0.6-1.5,1.5-1.5
	s1.5,0.6,1.5,1.5c0,0.8-0.6,1.5-1.5,1.5C70.7,180.16,70.1,179.56,70.1,178.76L70.1,178.76z M46.8,178.76c0-0.8,0.6-1.5,1.5-1.5
	s1.5,0.6,1.5,1.5c0,0.8-0.6,1.5-1.5,1.5S46.8,179.56,46.8,178.76L46.8,178.76z M46.8,202.16c0-0.8,0.6-1.5,1.5-1.5s1.5,0.6,1.5,1.5
	c0,0.8-0.6,1.5-1.5,1.5S46.8,202.96,46.8,202.16z M70.1,132.06c0-0.8,0.6-1.5,1.5-1.5s1.5,0.6,1.5,1.5c0,0.8-0.6,1.5-1.5,1.5
	S70.1,132.76,70.1,132.06z M23.4,85.26c0-0.8,0.6-1.5,1.5-1.5c0.8,0,1.5,0.6,1.5,1.5l0,0c0,0.8-0.6,1.5-1.5,1.5
	C24,86.66,23.4,86.06,23.4,85.26z M0,85.26c0-0.8,0.6-1.5,1.5-1.5s1.5,0.6,1.5,1.5l0,0c0,0.8-0.6,1.5-1.5,1.5S0,86.06,0,85.26z
	 M23.4,108.66c0-0.8,0.6-1.5,1.5-1.5c0.8,0,1.5,0.6,1.5,1.5c0,0.8-0.6,1.5-1.5,1.5S23.4,109.46,23.4,108.66z M0,108.66
	c0-0.8,0.6-1.5,1.5-1.5s1.5,0.6,1.5,1.5c0,0.8-0.6,1.5-1.5,1.5S0,109.46,0,108.66z M0,132.06c0-0.8,0.6-1.5,1.5-1.5s1.5,0.6,1.5,1.5
	c0,0.8-0.6,1.5-1.5,1.5S0,132.76,0,132.06z M23.4,62.06c0-0.8,0.6-1.5,1.5-1.5c0.8,0,1.5,0.6,1.5,1.5c0,0.8-0.6,1.5-1.5,1.5
	C24,63.46,23.4,62.66,23.4,62.06z M23.4,155.36c0-0.8,0.6-1.5,1.5-1.5c0.8,0,1.5,0.6,1.5,1.5c0,0.8-0.6,1.5-1.5,1.5
	C24,156.76,23.4,156.16,23.4,155.36z M0,155.36c0-0.8,0.6-1.5,1.5-1.5s1.5,0.6,1.5,1.5c0,0.8-0.6,1.5-1.5,1.5S0,156.16,0,155.36z
	 M23.4,178.76c0-0.8,0.6-1.5,1.5-1.5c0.8,0,1.5,0.6,1.5,1.5c0,0.8-0.6,1.5-1.5,1.5C24,180.16,23.4,179.56,23.4,178.76z M0,178.76
	c0-0.8,0.6-1.5,1.5-1.5s1.5,0.6,1.5,1.5c0,0.8-0.6,1.5-1.5,1.5S0,179.56,0,178.76z M0,202.16c0-0.8,0.6-1.5,1.5-1.5s1.5,0.6,1.5,1.5
	c0,0.8-0.6,1.5-1.5,1.5S0,202.96,0,202.16z M23.4,132.06c0-0.8,0.6-1.5,1.5-1.5c0.8,0,1.5,0.6,1.5,1.5c0,0.8-0.6,1.5-1.5,1.5
	S23.4,132.76,23.4,132.06z"/>
</svg>
