<?xml version="1.0" encoding="utf-8"?>
<!-- Generator: Adobe Illustrator 22.1.0, SVG Export Plug-In . SVG Version: 6.00 Build 0)  -->
<svg version="1.1" id="Layer_1" xmlns="http://www.w3.org/2000/svg" xmlns:xlink="http://www.w3.org/1999/xlink" x="0px" y="0px"
	 viewBox="0 0 64 50" style="enable-background:new 0 0 64 50;" xml:space="preserve">
<style type="text/css">
	.st0{fill:#FAF5E5;enable-background:new    ;}
	.st1{fill:url(#SVGID_1_);}
	.st2{fill:url(#SVGID_2_);}
</style>
<path class="st0" d="M61.09,25.16c-3.5-3-9.5-4.43-13.5-5.23c-6.3-1.21-9.79-4-13-9.36C32.1,6.45,29.7,1.82,24.6,0.41
	C11.4-3.11,1.51,16,0.21,25.06C-1.39,37,6.31,47.18,20,49.4c9.7,1.61,21-0.2,30-3.93c5.4-2.21,12.7-6.74,13.9-12.87
	C64.41,29.79,63.33,26.93,61.09,25.16z"/>
<linearGradient id="SVGID_1_" gradientUnits="userSpaceOnUse" x1="14.5" y1="27.15" x2="50.79" y2="27.15" gradientTransform="matrix(1 0 0 -1 0 52)">
	<stop  offset="0" style="stop-color:#F7C433"/>
	<stop  offset="0.52" style="stop-color:#FFA354"/>
	<stop  offset="1" style="stop-color:#EE3968"/>
</linearGradient>
<path class="st1" d="M48.29,43H14c-0.55,0-1-0.45-1-1V7.7c0-0.55,0.45-1,1-1h22.86c0.55,0,1,0.45,1,1s-0.45,1-1,1H15V41h32.29V19.13
	c0-0.55,0.45-1,1-1s1,0.45,1,1V42C49.29,42.55,48.84,43,48.29,43z"/>
<linearGradient id="SVGID_2_" gradientUnits="userSpaceOnUse" x1="43.17" y1="44.3" x2="59.51" y2="44.3" gradientTransform="matrix(1 0 0 -1 0 52)">
	<stop  offset="0" style="stop-color:#F7C433"/>
	<stop  offset="0.52" style="stop-color:#FFA354"/>
	<stop  offset="1" style="stop-color:#EE3968"/>
</linearGradient>
<path class="st2" d="M48.29,14.41c-3.71,0-6.71-3-6.71-6.71c0-3.71,3-6.71,6.71-6.71C52,0.99,55,3.99,55,7.7c0,0,0,0,0,0
	C54.99,11.4,51.99,14.4,48.29,14.41z M48.29,3c-2.6,0-4.71,2.11-4.71,4.71c0,2.6,2.11,4.71,4.71,4.71c2.6,0,4.71-2.11,4.71-4.71
	c0,0,0-0.01,0-0.01C52.99,5.1,50.89,3.01,48.29,3z"/>
</svg>
