<?xml version="1.0" encoding="utf-8"?>
<!-- Generator: Adobe Illustrator 22.1.0, SVG Export Plug-In . SVG Version: 6.00 Build 0)  -->
<svg version="1.1" id="Layer_1" xmlns="http://www.w3.org/2000/svg" xmlns:xlink="http://www.w3.org/1999/xlink" x="0px" y="0px"
	 viewBox="0 0 64 50" style="enable-background:new 0 0 64 50;" xml:space="preserve">
<style type="text/css">
	.st0{fill:#FAF5E5;enable-background:new    ;}
	.st1{fill:url(#SVGID_1_);}
</style>
<path class="st0" d="M0.9,11.21c-2.7,8.2,1,20.3,7.4,28.4c3.43,4.42,8.2,7.62,13.6,9.1c5.47,1.7,11.33,1.7,16.8,0
	c6.69-2.03,12.86-5.48,18.1-10.1c3.9-3.6,7.9-8,7.1-13.4s-5-9.7-9.7-12.4c0,0-11.6-7.1-33-10.3C9.2,0.51,3,4.71,0.9,11.21z"/>
<linearGradient id="SVGID_1_" gradientUnits="userSpaceOnUse" x1="24.8234" y1="23.0863" x2="49.8234" y2="49.0863" gradientTransform="matrix(1 0 0 -1 0 52)">
	<stop  offset="0" style="stop-color:#F7C433"/>
	<stop  offset="0.52" style="stop-color:#FFA354"/>
	<stop  offset="1" style="stop-color:#EE3968"/>
</linearGradient>
<path class="st1" d="M52,7.11l-9.3-6.5c-0.3-0.18-0.67-0.22-1-0.1c-0.31,0.19-0.5,0.53-0.5,0.9V7h-5.5
	c-2.59-0.01-4.69,2.09-4.7,4.68c0,0.01,0,0.01,0,0.02v19.5c0.01,1.49-1.19,2.69-2.68,2.7c-0.01,0-0.01,0-0.02,0h-5.6
	c-0.51-2.65-2.81-4.57-5.5-4.6c-3.09,0-5.6,2.5-5.6,5.6c0,3.09,2.5,5.6,5.6,5.6c0,0,0,0,0,0c2.72,0.03,5.05-1.92,5.5-4.6h5.6
	c2.59,0.01,4.69-2.09,4.7-4.68c0-0.01,0-0.01,0-0.02V11.71c-0.01-1.49,1.18-2.7,2.67-2.71c0.01,0,0.02,0,0.03,0h5.5v5.5
	c0,0.37,0.19,0.71,0.5,0.9c0.15,0.09,0.33,0.13,0.5,0.1c0.21-0.02,0.42-0.09,0.6-0.2L52,8.81c0.26-0.18,0.42-0.48,0.4-0.8
	C52.49,7.65,52.32,7.29,52,7.11z M17.2,38.51c-1.99,0-3.6-1.61-3.6-3.6c0-1.99,1.61-3.6,3.6-3.6c1.99,0,3.6,1.61,3.6,3.6l0,0
	c0.01,1.98-1.6,3.59-3.58,3.6C17.21,38.51,17.21,38.51,17.2,38.51z M43.2,12.51v-9.1L49.7,8L43.2,12.51z"/>
</svg>
