<?xml version="1.0" encoding="utf-8"?>
<!-- Generator: Adobe Illustrator 22.1.0, SVG Export Plug-In . SVG Version: 6.00 Build 0)  -->
<svg version="1.1" id="Layer_1" xmlns="http://www.w3.org/2000/svg" xmlns:xlink="http://www.w3.org/1999/xlink" x="0px" y="0px"
	 viewBox="0 0 64 50" style="enable-background:new 0 0 64 50;" xml:space="preserve">
<style type="text/css">
	.st0{fill:url(#SVGID_1_);}
	.st1{fill:url(#SVGID_2_);}
	.st2{fill:url(#SVGID_3_);}
	.st3{fill:url(#SVGID_4_);}
</style>
<title>PINK</title>
<linearGradient id="SVGID_1_" gradientUnits="userSpaceOnUse" x1="-7.610839e-03" y1="26.9858" x2="64.0094" y2="26.9858">
	<stop  offset="0" style="stop-color:#DDD5F0"/>
	<stop  offset="1" style="stop-color:#EEEBF8"/>
</linearGradient>
<path class="st0" d="M58.8,11C44.1-2.7,11.1,5.8,2.5,18.6c-4.8,7.2-2.2,17.2,3.5,23c10.3,10.2,27.6,10.2,39.9,4.7
	C57.8,41.1,71.8,22.7,58.8,11z"/>
<g>
	
		<linearGradient id="SVGID_2_" gradientUnits="userSpaceOnUse" x1="16.9856" y1="21.3371" x2="49.3606" y2="39.9621" gradientTransform="matrix(1 0 0 -1 0 52)">
		<stop  offset="0" style="stop-color:#A33F97"/>
		<stop  offset="1" style="stop-color:#5D39B9"/>
	</linearGradient>
	<path class="st1" d="M51.9,16.3c-0.1-0.5-0.7-0.8-1.2-0.6c-0.5,0.1-0.8,0.7-0.6,1.2c0.5,1.9,0.8,3.8,0.8,5.7
		C50.7,33,42.1,41.4,31.8,41.4c-0.1,0-0.2,0-0.3,0c-5.1-0.1-9.9-2.2-13.4-5.8c-3.5-3.7-5.4-8.5-5.4-13.6c0.1-5.1,2.2-9.9,5.8-13.4
		S27,3.1,32.1,3.2c3.8,0.1,7.3,1.2,10.4,3.3c-0.5,0.8-0.8,1.6-0.8,2.6c0,1.3,0.5,2.6,1.4,3.5c0.9,1,2.2,1.5,3.5,1.5h0.1
		c1.3,0,2.5-0.5,3.4-1.4c1-0.9,1.5-2.2,1.5-3.5c0-2.7-2.1-5-4.9-5.1h-0.1c-1,0-2,0.3-2.8,0.9c-3.4-2.4-7.5-3.8-11.7-3.8
		c-5.6-0.1-10.9,2-15,5.9c-4,3.9-6.3,9.1-6.4,14.7s2,10.9,5.9,15c3.9,4,9.1,6.3,14.7,6.4c0.1,0,0.2,0,0.4,0c11.4,0,20.8-9.2,21-20.6
		C52.8,20.5,52.5,18.4,51.9,16.3z M46.7,6.1L46.7,6.1c1.7,0,3.1,1.4,3.1,3.1c0,0.8-0.3,1.6-0.9,2.1c-0.6,0.6-1.4,0.9-2.2,0.9
		s-1.6-0.3-2.1-0.9c-0.6-0.6-0.9-1.4-0.9-2.2S44,7.5,44.6,7C45.1,6.4,45.9,6.1,46.7,6.1z"/>
	
		<linearGradient id="SVGID_3_" gradientUnits="userSpaceOnUse" x1="46.1842" y1="-185.7013" x2="19.1842" y2="-165.7013" gradientTransform="matrix(1 0 0 -1 0 -146)">
		<stop  offset="0" style="stop-color:#A33F97"/>
		<stop  offset="1" style="stop-color:#5D39B9"/>
	</linearGradient>
	<path class="st2" d="M22.7,28.1v2.7c0,0.3,0.1,0.5,0.3,0.7c0.2,0.2,0.4,0.3,0.7,0.3l16,0.3l0,0c0.5,0,0.9-0.4,1-0.9v-2.6
		c0-1.3-0.6-2.5-1.7-3.2c-1.4-0.9-3.8-1.9-7.2-2s-5.8,0.9-7.2,1.7C23.4,25.7,22.7,26.9,22.7,28.1z M24.6,28.2c0-0.6,0.3-1.2,0.9-1.5
		c1.2-0.7,3.3-1.5,6.3-1.5c2.9,0.1,5,1,6.2,1.7c0.5,0.3,0.8,0.9,0.8,1.5v1.7l-14.1-0.2L24.6,28.2z"/>
	
		<linearGradient id="SVGID_4_" gradientUnits="userSpaceOnUse" x1="52.3341" y1="-177.3989" x2="25.3341" y2="-157.3989" gradientTransform="matrix(1 0 0 -1 0 -146)">
		<stop  offset="0" style="stop-color:#A33F97"/>
		<stop  offset="1" style="stop-color:#5D39B9"/>
	</linearGradient>
	<path class="st3" d="M31.9,21.2c1.3,0,2.5-0.5,3.4-1.4c1-0.9,1.5-2.2,1.5-3.5c0-2.7-2.1-5-4.9-5.1c-1.3,0-2.6,0.5-3.5,1.4
		c-1,0.9-1.5,2.2-1.5,3.5s0.5,2.6,1.4,3.5C29.2,20.7,30.4,21.2,31.9,21.2C31.8,21.2,31.8,21.2,31.9,21.2z M28.8,16.2
		c0-0.8,0.3-1.6,0.9-2.1c0.6-0.6,1.3-0.9,2.1-0.9c0,0,0,0,0.1,0c1.7,0,3,1.4,3,3.1c0,0.8-0.3,1.6-0.9,2.1c-0.6,0.6-1.3,0.9-2.2,0.9
		c-0.8,0-1.6-0.3-2.1-0.9C29.1,17.8,28.8,17,28.8,16.2z"/>
</g>
</svg>
