<?xml version="1.0" encoding="utf-8"?>
<!-- Generator: Adobe Illustrator 22.1.0, SVG Export Plug-In . SVG Version: 6.00 Build 0)  -->
<svg version="1.1" id="Layer_1" xmlns="http://www.w3.org/2000/svg" xmlns:xlink="http://www.w3.org/1999/xlink" x="0px" y="0px"
	 viewBox="0 0 344.6 351" style="enable-background:new 0 0 344.6 351;" xml:space="preserve">
<style type="text/css">
	.st0{opacity:0.12;fill:#5D39B9;}
	.st1{opacity:0.1;fill:#5D39B9;}
	.st2{fill:#5D39B9;}
	.st3{fill:#032147;}
</style>
<path class="st0" d="M344.6,206.4c0-4.7-0.4-9.3-1.1-13.8l0,0.1c0,0-10-77.1-73-138.9l0,0c-16.7-17.8-40.8-29-67.8-29
	c-26.9,0-51.1,11.2-67.7,28.9c-62.9,61.7-73,138.5-73,138.9c-0.7,4.5-1.1,9.1-1.1,13.7c0,38.1,25.7,70.6,61.4,82.3
	c0,0,56.7,20.8,147.7,3.3h0C312.4,284.6,344.6,249.1,344.6,206.4z"/>
<path class="st1" d="M289.7,5.4c-4-1.6-8.2-2.7-12.3-3.3l0.1,0c0,0-70.6-14.6-150.8,34.6l0.1,0c-22.4,12.5-42.4,35.5-53.9,65.3
	c-11.5,29.8-12.2,60.2-4.1,84.6c26.2,90.1,87.9,126.8,88.3,127c3.5,2.3,7.3,4.3,11.3,5.8c32.8,12.7,71.7-4.9,97.1-40.6
	c0,0,42.1-55.8,66-162.3l0,0C343.2,67,326.4,19.6,289.7,5.4z"/>
<g>
	<path class="st2" d="M134.4,147.8c-2.4,4.7-4.5,9.6-6.3,14.6c-2.2,6.5-4.1,13.2-5.3,20.2c-1.4,7.5-2,15-2,22.2h76V89
		C170,100.7,147.8,121.3,134.4,147.8z"/>
	<path class="st3" d="M203.8,86.9L203.8,86.9v118h37.7v-0.1V78.9C228.6,79.7,215.6,82.4,203.8,86.9z"/>
</g>
<g id="Design">
	<g id="_x31_a-Home" transform="translate(-1102 -2474)">
		<g id="Section-4" transform="translate(222 2274)">
			<g id="_x31_" transform="translate(0 200)">
				<path id="Oval-4-Copy" class="st2" d="M899.5,265.7c-0.6,0.6-1.5,0.6-2.1,0c-0.6-0.6-0.6-1.5,0-2.1c0.6-0.6,1.5-0.6,2.1,0
					C900.1,264.2,900.1,265.1,899.5,265.7z M916.5,282.7c-0.6,0.6-1.5,0.6-2.1,0c-0.6-0.6-0.6-1.5,0-2.1c0.6-0.6,1.5-0.6,2.1,0
					C917.1,281.1,917.1,282.1,916.5,282.7z M916.5,248.7c-0.6,0.6-1.5,0.6-2.1,0c-0.6-0.6-0.6-1.5,0-2.1c0.6-0.6,1.5-0.6,2.1,0
					C917.1,247.2,917.1,248.1,916.5,248.7z M933.5,265.7c-0.6,0.6-1.5,0.6-2.1,0c-0.6-0.6-0.6-1.5,0-2.1c0.6-0.6,1.5-0.6,2.1,0
					C934.1,264.2,934.1,265.1,933.5,265.7z M950.4,248.7c-0.6,0.6-1.5,0.6-2.1,0c-0.6-0.6-0.6-1.5,0-2.1c0.6-0.6,1.5-0.6,2.1,0
					C951,247.2,951,248.1,950.4,248.7L950.4,248.7z M882.6,282.7c-0.6,0.6-1.5,0.6-2.1,0c-0.6-0.6-0.6-1.5,0-2.1l0,0
					c0.6-0.6,1.5-0.6,2.1,0C883.1,281.1,883.1,282.1,882.6,282.7z M950.4,214.8c-0.6,0.6-1.5,0.6-2.1,0c-0.6-0.6-0.6-1.5,0-2.1
					c0.6-0.6,1.5-0.6,2.1,0C951,213.3,951,214.2,950.4,214.8z M967.4,231.8c-0.6,0.6-1.5,0.6-2.1,0c-0.6-0.6-0.6-1.5,0-2.1
					c0.6-0.6,1.5-0.6,2.1,0C968,230.2,968,231.2,967.4,231.8z M967.4,197.8c-0.6,0.6-1.5,0.6-2.1,0c-0.6-0.6-0.6-1.5,0-2.1
					c0.6-0.6,1.5-0.6,2.1,0C968,196.3,968,197.2,967.4,197.8L967.4,197.8z M984.4,214.8c-0.6,0.6-1.5,0.6-2.1,0
					c-0.6-0.6-0.6-1.5,0-2.1c0.6-0.6,1.5-0.6,2.1,0C985,213.3,985,214.2,984.4,214.8L984.4,214.8z M933.5,231.8
					c-0.6,0.6-1.5,0.6-2.1,0c-0.6-0.6-0.6-1.5,0-2.1c0.6-0.6,1.5-0.6,2.1,0C934.1,230.2,934.1,231.2,933.5,231.8z M933.5,299.6
					c-0.6,0.6-1.5,0.6-2.1,0s-0.6-1.5,0-2.1l0,0c0.6-0.6,1.5-0.6,2.1,0C934.1,298.1,934.1,299.1,933.5,299.6z M950.4,316.6
					c-0.6,0.6-1.5,0.6-2.1,0c-0.6-0.6-0.6-1.5,0-2.1l0,0c0.6-0.6,1.5-0.6,2.1,0C951,315.1,951,316,950.4,316.6z M950.4,282.7
					c-0.6,0.6-1.5,0.6-2.1,0c-0.6-0.6-0.6-1.5,0-2.1c0.6-0.6,1.5-0.6,2.1,0C951,281.1,951,282.1,950.4,282.7z M967.4,299.6
					c-0.6,0.6-1.5,0.6-2.1,0c-0.6-0.6-0.6-1.5,0-2.1c0.6-0.6,1.5-0.6,2.1,0S968,299.1,967.4,299.6z M984.4,282.7
					c-0.6,0.6-1.5,0.6-2.1,0c-0.6-0.6-0.6-1.5,0-2.1s1.5-0.6,2.1,0C985,281.1,985,282.1,984.4,282.7z M916.5,316.6
					c-0.6,0.6-1.5,0.6-2.1,0c-0.6-0.6-0.6-1.5,0-2.1c0.6-0.6,1.5-0.6,2.1,0S917.1,316,916.5,316.6z M984.4,248.7
					c-0.6,0.6-1.5,0.6-2.1,0s-0.6-1.5,0-2.1c0.6-0.6,1.5-0.6,2.1,0C985,247.2,985,248.1,984.4,248.7z M1001.4,265.7
					c-0.6,0.6-1.5,0.6-2.1,0c-0.6-0.6-0.6-1.5,0-2.1c0.6-0.6,1.5-0.6,2.1,0C1001.9,264.2,1001.9,265.1,1001.4,265.7z M1001.4,231.8
					c-0.6,0.6-1.5,0.6-2.1,0c-0.6-0.6-0.6-1.5,0-2.1c0.6-0.6,1.5-0.6,2.1,0C1001.9,230.2,1001.9,231.2,1001.4,231.8z M1018.3,248.7
					c-0.6,0.6-1.5,0.6-2.1,0c-0.6-0.6-0.6-1.5,0-2.1c0.6-0.6,1.5-0.6,2.1,0C1018.9,247.2,1018.9,248.1,1018.3,248.7z M1035.3,231.8
					c-0.6,0.6-1.5,0.6-2.1,0c-0.6-0.6-0.6-1.5,0-2.1c0.6-0.6,1.5-0.6,2.1,0C1035.9,230.2,1035.9,231.2,1035.3,231.8z M967.4,265.7
					c-0.6,0.6-1.5,0.6-2.1,0c-0.6-0.6-0.6-1.5,0-2.1c0.6-0.6,1.5-0.6,2.1,0C968,264.2,968,265.1,967.4,265.7z M1056.5,282.7
					c-0.6,0.6-1.5,0.6-2.1,0c-0.6-0.6-0.6-1.5,0-2.1c0.6-0.6,1.5-0.6,2.1,0C1057.1,281.1,1057.1,282.1,1056.5,282.7z M1039.5,265.7
					c-0.6,0.6-1.5,0.6-2.1,0s-0.6-1.5,0-2.1c0.6-0.6,1.5-0.6,2.1,0C1040.1,264.2,1040.1,265.1,1039.5,265.7z M1039.5,299.6
					c-0.6,0.6-1.5,0.6-2.1,0s-0.6-1.5,0-2.1s1.5-0.6,2.1,0C1040.1,298.1,1040.1,299.1,1039.5,299.6z M1022.6,282.7
					c-0.6,0.6-1.5,0.6-2.1,0c-0.6-0.6-0.6-1.5,0-2.1c0.6-0.6,1.5-0.6,2.1,0C1023.2,281.1,1023.2,282.1,1022.6,282.7z M1005.6,299.6
					c-0.6,0.6-1.5,0.6-2.1,0c-0.6-0.6-0.6-1.5,0-2.1c0.6-0.6,1.5-0.6,2.1,0C1006.2,298.1,1006.2,299.1,1005.6,299.6z M1073.5,265.7
					c-0.6,0.6-1.5,0.6-2.1,0c-0.6-0.6-0.6-1.5,0-2.1c0.6-0.6,1.5-0.6,2.1,0C1074.1,264.2,1074.1,265.1,1073.5,265.7z M1005.6,333.6
					c-0.6,0.6-1.5,0.6-2.1,0c-0.6-0.6-0.6-1.5,0-2.1l0,0c0.6-0.6,1.5-0.6,2.1,0C1006.2,332.1,1006.2,333,1005.6,333.6z M988.6,316.6
					c-0.6,0.6-1.5,0.6-2.1,0c-0.6-0.6-0.6-1.5,0-2.1l0,0c0.6-0.6,1.5-0.6,2.1,0C989.2,315.1,989.2,316,988.6,316.6z M988.6,350.6
					c-0.6,0.6-1.5,0.6-2.1,0c-0.6-0.6-0.6-1.5,0-2.1c0.6-0.6,1.5-0.6,2.1,0C989.2,349,989.2,350,988.6,350.6z M971.7,333.6
					c-0.6,0.6-1.5,0.6-2.1,0c-0.6-0.6-0.6-1.5,0-2.1c0.6-0.6,1.5-0.6,2.1,0C972.2,332.1,972.2,333,971.7,333.6z M954.7,350.6
					c-0.6,0.6-1.5,0.6-2.1,0c-0.6-0.6-0.6-1.5,0-2.1c0.6-0.6,1.5-0.6,2.1,0C955.3,349,955.3,350,954.7,350.6L954.7,350.6z
					 M1022.6,316.6c-0.6,0.6-1.5,0.6-2.1,0c-0.6-0.6-0.6-1.5,0-2.1c0.6-0.6,1.5-0.6,2.1,0C1023.2,315.1,1023.2,316,1022.6,316.6z"/>
			</g>
		</g>
	</g>
</g>
</svg>
