<?xml version="1.0" encoding="utf-8"?>
<!-- Generator: Adobe Illustrator 22.1.0, SVG Export Plug-In . SVG Version: 6.00 Build 0)  -->
<svg version="1.1" id="Layer_1" xmlns="http://www.w3.org/2000/svg" xmlns:xlink="http://www.w3.org/1999/xlink" x="0px" y="0px"
	 viewBox="0 0 366.17 318.98" style="enable-background:new 0 0 366.17 318.98;" xml:space="preserve">
<style type="text/css">
	.st0{opacity:0.12;fill:#F7C433;enable-background:new    ;}
	.st1{fill:#F7C433;}
	.st2{fill:#032147;}
</style>
<g>
	<path class="st0" d="M47.44,292.83c4.33,2.25,8.66,4.09,12.99,5.52s74.4,27.38,159.22-2.45c23.81-7.15,44.87-24.52,57.27-49.85
		s13.19-53.32,4.92-77.43c-26.96-88.46-91.91-134.43-92.31-134.63c-3.74-2.86-7.68-5.31-12.01-7.56
		C142.9,8.25,101.76,16.83,74.8,44.82c0,0-44.68,43.31-70.66,137.29C-8.65,225.41,8.86,272.61,47.44,292.83L47.44,292.83z"/>
	<path class="st0" d="M9.68,137.95c4.76,32.62,22.54,65.06,40.45,91.06c17.88,25.96,39.76,49.21,65.09,68.02
		c21.06,17.16,49.2,25.33,78.53,20.63c29.13-4.7,53.53-21.66,68.49-44.54c57.67-80.9,55.5-169.16,55.5-169.57
		c0-5.11-0.39-10.42-1.18-15.73c-4.77-32.19-26.11-60.35-55.59-73.99c-36.32-16.8-87.16-13.07-125.44-4.9
		C73.74,22.12-1.1,64.1,9.68,137.95z"/>
	<path class="st1" d="M363.09,26.17c0-0.88,0.66-1.54,1.54-1.54s1.54,0.66,1.54,1.54s-0.66,1.54-1.54,1.54
		C363.75,27.7,363.09,27.05,363.09,26.17z M338.46,26.17c0-0.88,0.66-1.54,1.54-1.54s1.54,0.66,1.54,1.54s-0.66,1.54-1.54,1.54
		S338.46,27.05,338.46,26.17z M363.09,51.01c0-0.88,0.66-1.54,1.54-1.54s1.54,0.66,1.54,1.54s-0.66,1.54-1.54,1.54
		S363.09,51.89,363.09,51.01z M338.46,51.01c0-0.88,0.66-1.54,1.54-1.54s1.54,0.66,1.54,1.54s-0.66,1.54-1.54,1.54
		S338.46,51.89,338.46,51.01z M338.46,75.86c0-0.88,0.66-1.54,1.54-1.54s1.54,0.66,1.54,1.54s-0.66,1.54-1.54,1.54
		S338.46,76.52,338.46,75.86z M363.09,1.54c0-0.88,0.66-1.54,1.54-1.54s1.54,0.66,1.54,1.54s-0.66,1.54-1.54,1.54
		S363.09,2.2,363.09,1.54z M363.09,100.48c0-0.88,0.66-1.54,1.54-1.54s1.54,0.66,1.54,1.54s-0.66,1.54-1.54,1.54
		S363.09,101.36,363.09,100.48z M338.46,100.48c0-0.88,0.66-1.54,1.54-1.54s1.54,0.66,1.54,1.54s-0.66,1.54-1.54,1.54
		S338.46,101.36,338.46,100.48z M363.09,125.33c0-0.88,0.66-1.54,1.54-1.54s1.54,0.66,1.54,1.54s-0.66,1.54-1.54,1.54
		S363.09,126.21,363.09,125.33z M338.46,125.33c0-0.88,0.66-1.54,1.54-1.54s1.54,0.66,1.54,1.54s-0.66,1.54-1.54,1.54
		S338.46,126.21,338.46,125.33z M338.46,150.18c0-0.88,0.66-1.54,1.54-1.54s1.54,0.66,1.54,1.54s-0.66,1.54-1.54,1.54
		S338.46,151.06,338.46,150.18z M363.09,75.86c0-0.88,0.66-1.54,1.54-1.54s1.54,0.66,1.54,1.54s-0.66,1.54-1.54,1.54
		S363.09,76.52,363.09,75.86z M313.61,26.17c0-0.88,0.66-1.54,1.54-1.54s1.54,0.66,1.54,1.54c0,0.88-0.66,1.54-1.54,1.54
		S313.61,27.05,313.61,26.17z M288.77,26.17c0-0.88,0.66-1.54,1.54-1.54s1.54,0.66,1.54,1.54c0,0.88-0.66,1.54-1.54,1.54
		S288.77,27.05,288.77,26.17z M313.61,51.01c0-0.88,0.66-1.54,1.54-1.54s1.54,0.66,1.54,1.54s-0.66,1.54-1.54,1.54
		S313.61,51.89,313.61,51.01z M288.77,51.01c0-0.88,0.66-1.54,1.54-1.54s1.54,0.66,1.54,1.54s-0.66,1.54-1.54,1.54
		S288.77,51.89,288.77,51.01z M288.77,75.86c0-0.88,0.66-1.54,1.54-1.54s1.54,0.66,1.54,1.54s-0.66,1.54-1.54,1.54
		S288.77,76.52,288.77,75.86z M313.61,1.54c0-0.88,0.66-1.54,1.54-1.54s1.54,0.66,1.54,1.54s-0.66,1.54-1.54,1.54
		S313.61,2.2,313.61,1.54z M313.61,100.48c0-0.88,0.66-1.54,1.54-1.54s1.54,0.66,1.54,1.54s-0.66,1.54-1.54,1.54
		S313.61,101.36,313.61,100.48z M288.77,100.48c0-0.88,0.66-1.54,1.54-1.54s1.54,0.66,1.54,1.54s-0.66,1.54-1.54,1.54
		S288.77,101.36,288.77,100.48z M313.61,125.33c0-0.88,0.66-1.54,1.54-1.54s1.54,0.66,1.54,1.54s-0.66,1.54-1.54,1.54
		S313.61,126.21,313.61,125.33z M288.77,125.33c0-0.88,0.66-1.54,1.54-1.54s1.54,0.66,1.54,1.54s-0.66,1.54-1.54,1.54
		S288.77,126.21,288.77,125.33z M288.77,150.18c0-0.88,0.66-1.54,1.54-1.54s1.54,0.66,1.54,1.54s-0.66,1.54-1.54,1.54
		S288.77,151.06,288.77,150.18z M313.61,75.86c0-0.88,0.66-1.54,1.54-1.54s1.54,0.66,1.54,1.54s-0.66,1.54-1.54,1.54
		S313.61,76.52,313.61,75.86z M236.22,128.41c0-0.88,0.66-1.54,1.54-1.54s1.54,0.66,1.54,1.54c0,0.88-0.66,1.54-1.54,1.54
		S236.22,129.29,236.22,128.41z M260.84,128.41c0-0.88,0.66-1.54,1.54-1.54s1.54,0.66,1.54,1.54c0,0.88-0.66,1.54-1.54,1.54
		C261.72,129.95,260.84,129.29,260.84,128.41z M236.22,103.56c0-0.88,0.66-1.54,1.54-1.54s1.54,0.66,1.54,1.54s-0.66,1.54-1.54,1.54
		S236.22,104.44,236.22,103.56z M260.84,103.56c0-0.88,0.66-1.54,1.54-1.54s1.54,0.66,1.54,1.54s-0.66,1.54-1.54,1.54
		C261.72,105.1,260.84,104.44,260.84,103.56z M260.84,78.94c0-0.88,0.66-1.54,1.54-1.54s1.54,0.66,1.54,1.54s-0.66,1.54-1.54,1.54
		C261.72,80.48,260.84,79.82,260.84,78.94z M236.22,153.26c0-0.88,0.66-1.54,1.54-1.54s1.54,0.66,1.54,1.54s-0.66,1.54-1.54,1.54
		C236.88,154.79,236.22,154.13,236.22,153.26z M236.22,54.09c0-0.88,0.66-1.54,1.54-1.54s1.54,0.66,1.54,1.54s-0.66,1.54-1.54,1.54
		S236.22,54.97,236.22,54.09z M260.84,54.09c0-0.88,0.66-1.54,1.54-1.54s1.54,0.66,1.54,1.54s-0.66,1.54-1.54,1.54
		C261.72,55.63,260.84,54.97,260.84,54.09z M236.22,29.24c0-0.88,0.66-1.54,1.54-1.54s1.54,0.66,1.54,1.54s-0.66,1.54-1.54,1.54
		S236.22,30.12,236.22,29.24z M260.84,29.24c0-0.88,0.66-1.54,1.54-1.54s1.54,0.66,1.54,1.54s-0.66,1.54-1.54,1.54
		C261.72,30.78,260.84,30.12,260.84,29.24z M260.84,4.62c0-0.88,0.66-1.54,1.54-1.54s1.54,0.66,1.54,1.54s-0.66,1.54-1.54,1.54
		C261.72,6.16,260.84,5.5,260.84,4.62z M236.22,78.94c0-0.88,0.66-1.54,1.54-1.54s1.54,0.66,1.54,1.54s-0.66,1.54-1.54,1.54
		S236.22,79.82,236.22,78.94z"/>
</g>
<path class="st2" d="M86.9,214.63c47.21-2.74,90.77-24.98,120.93-61.53L86.6,153.4L86.9,214.63z"/>
<path class="st1" d="M182.55,81.21c-47.21,2.74-90.77,24.98-120.93,61.53l121.23-0.3L182.55,81.21z"/>
</svg>
